<?xml version="1.0" encoding="utf-8"?>
<!-- Generator: Adobe Illustrator 24.1.3, SVG Export Plug-In . SVG Version: 6.00 Build 0)  -->
<svg version="1.1" id="レイヤー_1" xmlns="http://www.w3.org/2000/svg" xmlns:xlink="http://www.w3.org/1999/xlink" x="0px"
	 y="0px" viewBox="0 0 324 247" style="enable-background:new 0 0 324 247;" xml:space="preserve">
<style type="text/css">
	.st0{fill:#202B78;}
	.st1{fill:none;stroke:#A1CBED;stroke-width:2;stroke-miterlimit:10;}
	.st2{fill:#FFFFFF;}
	.st3{fill:none;}
	.st4{fill:#A1CBED;stroke:#FFFFFF;stroke-width:1.5;stroke-miterlimit:10;}
	.st5{fill:#A1CBED;stroke:#FFFFFF;stroke-miterlimit:10;}
</style>
<g id="レイヤー_2_1_">
	<g id="レイヤー_1OL">
		<path class="st0" d="M93.4,76.3c-0.6,0.7-0.9,1.5-0.9,2.3c0,0.8,0.5,1.6,1.2,2c1,0.6,2,0.7,4,0.7c2,0,4.1-0.1,6.1-0.4l0.1,1.7
			c-1.3,0.1-3.5,0.3-5.7,0.3c-3,0-4.2-0.2-5.4-0.9c-1.2-0.7-1.9-1.9-1.9-3.3c0-1.2,0.5-2.3,1.2-3.3L93.4,76.3z M101.1,71.1
			c-1.5,0.5-2.9,1.2-4.2,2.1l-1.2-0.9c0.8-0.5,1.6-1,2.4-1.3c-0.7,0-4.2,0-6.3,0.1v-1.6h9.2L101.1,71.1z M102.1,67.4
			c0.7,1.1,1.3,2.2,1.8,3.4l-1.2,0.7c-0.4-1.2-0.9-2.4-1.7-3.5L102.1,67.4z M104.9,66.7c0.7,1.1,1.3,2.2,1.8,3.4l-1.3,0.7
			c-0.4-1.2-1-2.4-1.7-3.5L104.9,66.7z"/>
		<path class="st0" d="M115,69.4c0.4-0.9,0.6-1.8,0.7-2l1.6,0.2c-0.2,0.6-0.5,1.2-0.7,1.8h7v14.4h-13.9V69.4H115z M122,70.7h-10.8
			v2.9h10.9L122,70.7z M122,74.9h-10.8v3h10.9L122,74.9z M122,79.3h-10.8v3.2h10.9L122,79.3z"/>
		<path class="st0" d="M135.3,81.9c0,0.5,0.4,0.6,0.7,0.6h4.9c0.3,0,0.6-0.1,0.7-0.4c0.1-0.8,0.2-1.7,0.2-2.6l1.5,0.4
			c0,1.1-0.1,2.1-0.4,3.2c-0.3,0.6-0.9,0.9-1.6,0.9h-6.1c-0.7,0.1-1.4-0.4-1.5-1.2c0-0.1,0-0.2,0-0.3v-4.2l-6.3,0.6l-0.1-1.4
			l6.4-0.6v-2.6c-1.6,0.2-2.6,0.2-3.5,0.3l-0.4-1.4c3.6,0,7.2-0.6,10.7-1.6l0.7,1.3c-2,0.6-4,1.1-6,1.3v2.6l8.6-0.8l0.1,1.4
			l-8.7,0.8L135.3,81.9z M136.4,67.5v1.6h7.1v4.1H142v-2.7h-12.7v2.7h-1.5v-4.1h7.1v-1.6H136.4z"/>
		<path class="st0" d="M162.2,70.8c-0.8-0.1-1.3-0.1-1.8-0.1c-0.6,0-1.2,0-1.8,0.2c-2.6,0.9-6.1,3.7-6.1,6.8c0,2.3,1.7,3.1,3.6,3.5
			c1.5,0.3,3,0.4,4.5,0.3l-0.3,1.8c-3.5-0.2-9.5-0.4-9.5-5.4c0-3.4,3.1-5.8,5.3-7c-0.5,0-6.8,0.4-8.7,0.6l-0.1-1.8
			c0.9,0,4-0.2,4.9-0.2c4.3-0.2,6-0.3,10.1-0.3L162.2,70.8z M158.4,72.9c0.8,1,1.5,2.2,2,3.4l-1.3,0.8c-0.5-1.2-1.1-2.4-1.9-3.5
			L158.4,72.9z M161.1,71.8c0.8,1,1.5,2.2,2,3.4l-1.3,0.8c-0.5-1.2-1.1-2.4-1.9-3.5L161.1,71.8z"/>
		<path class="st0" d="M177.3,70.7v1.5h-5.8l-0.1,3.3h2.3c1.1,0.1,2.2-0.1,3.3-0.3l0.1,1.5c-1.1,0.2-2.2,0.4-3.4,0.3h-2.4
			c-0.1,4-0.1,4.8,3.6,4.8c1.9,0,4.5,0,4.5-3.5c0-1.4-0.4-2.8-1-4l1.5-0.4c0.8,1.4,1.2,3,1.2,4.6c0,4.9-4.1,4.9-6,4.9
			c-2.3,0-4-0.2-4.9-2c-0.4-0.8-0.4-1.8-0.4-4.4h-3.4v-1.5h3.4v-3.3h-3.2v-1.5h3.2v-2.5h1.6l-0.1,2.5H177.3z"/>
		<path class="st0" d="M199.4,84.2c-1.7-1.1-3.5-2.1-5.4-2.9c-2.5,1.7-5.4,2.6-8.4,2.8l-0.5-1.6c2.6-0.1,5.1-0.8,7.4-1.9
			c-1.9-0.7-3.9-1.4-5.9-1.9c0.9-1,1.8-2.2,2.5-3.4h-4.3v-1.4h5.1c0.5-0.9,0.8-1.8,1.2-2.7l1.6,0.3c-0.2,0.5-0.4,1.1-1.1,2.4h9.8
			v1.4h-3.2c-0.5,1.8-1.4,3.5-2.8,4.8c1.8,0.7,3.5,1.6,5.1,2.6L199.4,84.2z M192.1,69.1v-1.6h1.6v1.6h7.1V73h-1.5v-2.5h-12.7V73
			h-1.5v-3.9H192.1z M190.7,75.4c-0.5,0.9-1.1,1.8-1.7,2.6c1.3,0.4,3.1,0.9,4.9,1.6c1.2-1.2,2.1-2.6,2.6-4.3L190.7,75.4z"/>
		<path class="st0" d="M203.4,80.6c0.7-1.3,1.5-3.1,1.8-7.4l1.6,0.2c-0.2,2.8-0.7,6.1-2,8.3L203.4,80.6z M214.9,71.3
			c-2.2-1.2-4.7-2-7.2-2.4l0.4-1.4c2.6,0.4,5,1.1,7.4,2.2L214.9,71.3z M210,72.3v9.5c0,0.2,0,0.6,0.5,0.6h3.7
			c0.4,0.1,0.8-0.2,0.9-0.6c0.2-0.9,0.4-1.9,0.4-2.9l1.5,0.5c-0.5,4.3-1.4,4.4-2.5,4.4h-4.5c-1,0-1.6-0.3-1.6-1.5v-10L210,72.3z
			 M219,81.6c-0.5-3-1.4-5.9-2.8-8.6l1.4-0.6c1.4,2.8,2.4,5.7,3,8.8L219,81.6z"/>
		<path class="st0" d="M227.8,68.3c-0.2,4.9-0.2,7-0.2,8.7c0,2.3,0.1,4.7,3.5,4.7c4.7,0,5.3-3.2,5.8-6l1.5,0.6c-0.6,3.3-1.8,7-7.2,7
			c-4.9,0-5.3-3.3-5.3-6.4c0-1.3,0.1-7.3,0.1-8.6H227.8z"/>
		<path class="st0" d="M257.6,70.8c-0.6-0.1-1.2-0.1-1.8-0.1c-0.6,0-1.2,0-1.8,0.2c-2.6,0.9-6.1,3.7-6.1,6.8c0,2.3,1.7,3.1,3.6,3.5
			c1.5,0.3,3,0.4,4.5,0.3l-0.3,1.8c-3.5-0.2-9.5-0.4-9.5-5.4c0-3.4,3.1-5.8,5.3-7c-0.5,0-6.8,0.4-8.7,0.6l-0.1-1.8
			c1.1,0,4-0.2,4.9-0.2c4-0.2,5.7-0.3,10.1-0.3L257.6,70.8z"/>
		<path class="st0" d="M127,104.1h6.7v1.4H127v2.8h7.6v1.4H127v4.3c0.1,0.8-0.5,1.5-1.2,1.6c-0.1,0-0.2,0-0.3,0h-3.6l-0.3-1.5h3.3
			c0.2,0,0.6,0,0.6-0.5v-3.9h-7.6v-1.4h7.6v-2.8h-6.7v-1.4h6.7v-2.7c-3.2,0.2-5.3,0.2-6.7,0.2l-0.2-1.5c4.8,0.2,9.5-0.2,14.2-1.1
			l0.4,1.4c-2.1,0.4-4.2,0.7-6.3,0.8L127,104.1z"/>
		<path class="st0" d="M140.2,100.5V99h1.4v1.5h3.2v1.3h-3.2v1.2h2.9v6.9h-2.9v1.5h3.3v1.3h-3.3v3h-1.4v-3h-3.3v-1.3h3.3v-1.5h-2.9
			V103h2.9v-1.2h-3.1v-1.3L140.2,100.5z M140.2,104.2h-1.6v1.7h1.6V104.2z M140.2,107h-1.6v1.7h1.6V107z M143.2,104.2h-1.6v1.7h1.6
			V104.2z M143.2,107h-1.6v1.7h1.6V107z M150,109.3h3.2v1.3H150v3.1h3.6v1.4h-9.2v-1.4h4.2v-3.1h-3.4v-1.3h3.4v-1.8h1.4L150,109.3z
			 M144.6,106.8c1.4-0.4,2.7-1.1,3.8-2c-0.8-1-1.5-2.1-2-3.3l1.2-0.5c0.5,1.1,1.1,2,1.9,2.9c0.9-0.8,1.6-1.9,2-3h-6.3v-1.3h7.9v1.3
			c-0.5,1.5-1.4,2.9-2.6,4c1,0.8,2,1.4,3.2,1.9l-0.8,1.3c-1.3-0.6-2.5-1.3-3.5-2.3c-1.2,1-2.6,1.7-4.1,2.3L144.6,106.8z"/>
		<path class="st0" d="M159.9,100.1c-0.6,2.7-0.9,5.4-0.8,8.2c-0.1,2.1,0.1,4.3,0.6,6.4l-1.7,0.1c-0.3-2.1-0.5-4.2-0.5-6.3
			c0-2.9,0.2-5.7,0.8-8.6L159.9,100.1z M164.5,107.8c-0.5,0.7-0.9,1.5-0.9,2.4c0,1.6,1.8,1.9,3.8,1.9c1.4,0,2.8-0.1,4.1-0.2v1.7
			c-0.6,0.1-1.9,0.2-3.4,0.2c-2.7,0-6-0.3-6-3.3c0-1.1,0.4-2.1,0.9-3L164.5,107.8z M171.1,101.4v1.6h-8.5v-1.6H171.1z"/>
		<path class="st0" d="M179.3,107.8c-0.6,0.7-0.9,1.5-0.9,2.3c0,0.8,0.5,1.6,1.2,2c1,0.6,2,0.7,4,0.7c2,0,4.1-0.1,6.1-0.4l0.1,1.7
			c-1.3,0.1-3.5,0.3-5.7,0.3c-3,0-4.2-0.2-5.4-0.9c-1.2-0.7-1.9-1.9-1.9-3.3c0-1.2,0.4-2.3,1.2-3.2L179.3,107.8z M187,102.6
			c-1.5,0.5-2.9,1.2-4.2,2.1l-1.2-0.9c0.8-0.5,1.6-1,2.4-1.3c-0.7,0-4.1,0-6.3,0.1v-1.6h9.3L187,102.6z M188,98.9
			c0.7,1.1,1.3,2.2,1.8,3.4l-1.2,0.7c-0.4-1.2-1-2.4-1.7-3.5L188,98.9z M190.7,98.2c0.7,1.1,1.3,2.2,1.8,3.4l-1.3,0.7
			c-0.4-1.2-1-2.4-1.7-3.5L190.7,98.2z"/>
		<path class="st0" d="M200.2,109.9c-0.7-0.8-1.2-1.7-1.7-2.7v8.5h-1.4v-9c-0.6,1.8-1.5,3.6-2.6,5.1l-0.7-1.7c1.4-1.9,2.5-4,3.1-6.3
			h-2.8v-1.4h3V99h1.4v3.5h2.4v1.4h-2.4v1.2c0.7,1.3,1.5,2.5,2.6,3.5L200.2,109.9z M210.2,115.3h-8.4V99.5h8.4V115.3z M208.8,100.9
			h-5.6v3.4h5.5L208.8,100.9z M208.8,105.6h-5.6v3.4h5.5L208.8,105.6z M208.8,110.3h-5.6v3.6h5.5L208.8,110.3z"/>
		<path class="st0" d="M219.9,102v1.3h-6.7V102H219.9z M219.3,99.4v1.3h-5.5v-1.3L219.3,99.4z M219.3,104.5v1.3h-5.5v-1.3H219.3z
			 M219.3,107.2v1.3h-5.5v-1.3H219.3z M219.3,109.8v5.5h-5.5v-5.5H219.3z M218,111.1h-2.9v3h2.9V111.1z M225.5,106.6v1.3
			c-0.1,3,1.9,5.6,4.8,6.4l-0.7,1.4c-3.1-1.4-4.1-3.1-4.7-4.6c-0.7,2.1-2.4,3.8-4.4,4.6l-0.8-1.3c1.3-0.4,2.5-1.2,3.3-2.3
			c0.7-1.2,1.2-2.6,1.2-4v-1.4H225.5z M225.5,99v1c0,2.6,1.5,4.9,4.6,6.1l-0.8,1.4c-2.1-0.9-3.7-2.5-4.6-4.6
			c-0.8,2.1-2.4,3.7-4.4,4.6l-0.8-1.3c2.6-0.9,4.4-3.3,4.4-6.1V99L225.5,99z M221.3,111.6c-0.2-1.1-0.6-2.3-1.1-3.3l1.3-0.4
			c0.5,1.1,0.9,2.2,1.2,3.3L221.3,111.6z M221.2,103.6c-0.1-1.2-0.4-2.3-0.8-3.4l1.3-0.4c0.4,1.1,0.8,2.2,0.9,3.3L221.2,103.6z
			 M226.8,103c0.6-1,1-2.1,1.4-3.2l1.4,0.5c-0.4,1.1-0.8,2.2-1.4,3.3L226.8,103z M229.6,108.1c-0.4,1.2-0.9,2.4-1.5,3.6l-1.3-0.6
			c0.6-1,1.1-2.2,1.4-3.3L229.6,108.1z"/>
		<path class="st0" d="M115.9,132.1c-0.3,1.7-0.4,3.4-0.4,5.1c0,2.8,0.2,6.7,2.2,6.7c0.8,0,1.7-0.7,3-4l1.3,0.8
			c-0.5,1.6-1.3,3-2.4,4.2c-0.5,0.5-1.2,0.9-2,0.9c-2.9,0-3.7-4-3.7-8.7c0-2,0.2-3.9,0.3-5.1L115.9,132.1z M126.9,144.1
			c0-0.5,0.1-1,0.1-1.8c0-4.7-1.4-7.3-3.3-8.8l1.2-1c2.1,1.8,4,4.3,3.7,11.5L126.9,144.1z"/>
		<path class="st0" d="M132.4,146c1.9-3.6,2.9-9.5,3.1-11h-2.6v-1.5h2.8c0.1-1.3,0.1-1.3,0.2-2.4l1.8,0.1c-0.1,0.9-0.1,1.2-0.3,2.3
			h4.9v1.5h-5.2c-0.6,4-1.7,7.8-3.1,11.6L132.4,146z M140.8,141.4c-0.4,0.5-0.6,1-0.6,1.6c0,1.6,2.1,1.7,4.2,1.7c0.6,0,2,0,3.5-0.1
			v1.6h-3.4c-2.1,0-5.8,0-5.8-3.1c0-0.9,0.3-1.7,0.9-2.4L140.8,141.4z M147.4,137.5c-0.5,0-1,0-1.8,0c-1.7,0-3.4,0.2-4.9,0.8
			l-0.5-1.4c1.4-0.5,3.1-1.1,7.3-0.9L147.4,137.5z"/>
		<path class="st0" d="M151.4,146c1.8-3.5,2.9-9.3,3.1-11h-2.6v-1.5h2.8c0.1-1.3,0.1-1.3,0.2-2.4l1.8,0.1c-0.1,0.9-0.1,1.2-0.3,2.3
			h5v1.5h-5.2c-0.6,3.9-1.6,7.8-3.1,11.5L151.4,146z M159.9,141.4c-0.4,0.5-0.6,1-0.6,1.6c0,1.6,2.1,1.7,4.2,1.7c0.6,0,2,0,3.5-0.1
			v1.6h-3.4c-2.1,0-5.8,0-5.8-3.1c0-0.9,0.3-1.7,0.9-2.4L159.9,141.4z M166.5,137.5c-0.5,0-1,0-1.8,0c-1.7,0-3.4,0.2-4.9,0.8
			l-0.5-1.4c2.3-0.8,4.8-1.1,7.3-0.9L166.5,137.5z M163.6,130.6c0.7,1.1,1.2,2.3,1.6,3.5l-1.3,0.7c-0.4-1.2-0.9-2.4-1.6-3.6
			L163.6,130.6z M166.3,130c0.7,1.1,1.2,2.3,1.6,3.5l-1.3,0.7c-0.4-1.3-0.9-2.4-1.6-3.6L166.3,130z"/>
		<path class="st0" d="M173.6,131.5c-0.4,2.6-0.6,5.2-0.6,7.8c0,2.2,0.2,4.4,0.6,6.6l-1.7,0.2c-0.4-2.2-0.6-4.5-0.6-6.7
			c0-2.7,0.2-5.3,0.5-8L173.6,131.5z M175.2,136.4v-1.5h6.4c0-0.8-0.1-2.8-0.1-3.7h1.6c0,0.6,0.1,3.2,0.1,3.7h2.9v1.5h-2.9
			c0.1,5.5-0.2,9.4-6.2,10.1l-0.6-1.5c4.4-0.7,5.3-2.2,5.2-8.7L175.2,136.4z"/>
		<path class="st0" d="M204.4,133.1v1.4h-5.7v2.2h5.4v1.4h-5.4v2.5c2,0.8,3.8,1.9,5.4,3.3l-1.1,1.6c-1.2-1.4-2.7-2.5-4.3-3.2v1
			c0,2.6-2.1,3.1-3.6,3.1c-3.5,0-4.3-1.9-4.3-3c0-1.9,1.9-3.3,4.5-3.3c0.6,0,1.2,0.1,1.8,0.2v-2.1h-6.6v-1.4h6.6v-2.2h-6.9v-1.4h6.9
			v-1.9h1.6v1.9H204.4z M197.1,141.6c-0.6-0.2-1.2-0.3-1.8-0.3c-1.7,0-3,0.7-3,1.9c0,0.3,0.2,1.7,2.6,1.7c1.6,0,2.3-0.6,2.3-2
			L197.1,141.6z"/>
		<path class="st0" d="M224.1,133.1v1.5h-4.7v3.6c0.1,0.4,0.2,0.8,0.2,1.2c0.1,0.5,0.1,0.9,0.1,1.4c0,4.8-4.2,5.6-7.4,5.8l-0.5-1.5
			c4.8,0.1,6.1-1.6,6.4-3.8c-0.5,1.1-1.6,1.8-2.8,1.7c-1.8,0-3.3-1.4-3.4-3.3c0-0.1,0-0.2,0-0.2c-0.1-2,1.5-3.6,3.4-3.7
			c0.1,0,0.2,0,0.3,0c0.7-0.1,1.5,0.2,2,0.7v-1.9h-8.9v-1.5h8.9v-2h1.7v2H224.1z M217.8,138.8c-0.1-1-1-1.7-2-1.6
			c-1.2-0.1-2.2,0.8-2.2,2c0,0.1,0,0.2,0,0.2c-0.1,1.2,0.7,2.2,1.9,2.3c1.2,0.1,2.2-0.7,2.3-1.9c0-0.1,0-0.1,0-0.2L217.8,138.8z"/>
		<path class="st0" d="M233.3,143.9c0,1.5-1.2,2.7-2.7,2.7c-1.5,0-2.7-1.2-2.7-2.7c0-1.5,1.2-2.7,2.7-2.7c0,0,0,0,0,0
			C232.1,141.2,233.2,142.4,233.3,143.9z M228.8,143.9c0,1,0.8,1.8,1.8,1.8s1.8-0.8,1.8-1.8c0-1-0.8-1.8-1.8-1.8
			C229.6,142.1,228.8,142.9,228.8,143.9C228.8,143.9,228.8,143.9,228.8,143.9z"/>
		<path class="st1" d="M63.9,16.1h220c2.8,0,5,2.2,5,5v176c0,2.8-2.2,5-5,5h-220c-2.8,0-5-2.2-5-5v-176
			C58.9,18.3,61.2,16.1,63.9,16.1z"/>
		<rect x="50.2" y="8.4" class="st2" width="58.7" height="27.2"/>
		<path class="st0" d="M36.8,22.6h-2.3V3.8h2.7c5.8,0,7.6,2,7.6,5.4c0,4-3,5.5-6.6,5.5h-1.4V22.6z M36.8,12.6h0.8c2.4,0,5-0.4,5-3.4
			s-2.8-3.3-5.1-3.3h-0.6V12.6z"/>
		<path class="st0" d="M58,16.8c0,3.5-2.8,6.3-6.2,6.3c-3.5,0-6.3-2.8-6.3-6.2c0-3.5,2.8-6.3,6.2-6.3c0,0,0,0,0,0
			c3.4-0.1,6.2,2.7,6.2,6C58,16.7,58,16.8,58,16.8z M47.8,16.8c0,2.2,1.9,4,4.1,3.9c2.2,0,4-1.9,3.9-4.1c0-2.2-1.8-3.9-4-3.9
			C49.5,12.8,47.8,14.6,47.8,16.8L47.8,16.8z"/>
		<path class="st0" d="M63.3,5.6c0,0.9-0.7,1.5-1.6,1.5c-0.9,0-1.5-0.7-1.5-1.5c0-0.9,0.7-1.6,1.5-1.6S63.3,4.7,63.3,5.6
			C63.3,5.6,63.3,5.6,63.3,5.6z M62.8,22.6h-2.3V11h2.3V22.6z"/>
		<path class="st0" d="M68.7,12.5L68.7,12.5c0.7-1.2,2.1-2,3.5-1.9c3.3,0,4.2,2.2,4.2,5.1v7h-2.2V16c0-2-0.3-3.4-2.6-3.4
			c-2.9,0-2.9,2.6-2.9,4.7v5.4h-2.2V11h2.3V12.5z"/>
		<path class="st0" d="M82.1,22.6h-2.3V13h-1.2v-2h1.2V6.5h2.3V11h2.2v2.1h-2.2L82.1,22.6z"/>
		<path class="st0" d="M94.3,6l1.3-2.2h4.2v18.8h-2.3V6H94.3z"/>
		<rect x="0.5" y="0.5" class="st3" width="323" height="246"/>
		<rect x="53.3" y="168.6" class="st2" width="59.3" height="42.3"/>
		<path class="st4" d="M116.8,188.2l-40.2-27.8c-0.5-0.4-1.2-0.4-1.8,0l-40.2,27.8c-0.4,0.3-0.7,0.8-0.7,1.3v3.1
			c0,0.9,0.7,1.5,1.6,1.5c0.3,0,0.6-0.1,0.9-0.3l39.3-27.2l39.3,27.2c0.3,0.2,0.6,0.3,0.9,0.3c0.3,0,0.5-0.1,0.7-0.2
			c0.5-0.3,0.8-0.8,0.8-1.4v-3.1C117.5,189,117.3,188.5,116.8,188.2z"/>
		<circle class="st5" cx="61.9" cy="215.7" r="1.6"/>
		<path class="st5" d="M112.9,228.1h-4.6v-35.5c0.1-0.9-0.6-1.6-1.4-1.7s-1.6,0.6-1.7,1.4c0,0.1,0,0.2,0,0.2v35.5H68.1v-17
			c0.2-4.3-3.2-7.8-7.4-8s-7.8,3.2-8,7.4c0,0.2,0,0.4,0,0.6v17h-6.2v-35.5c0.1-0.9-0.6-1.6-1.4-1.7c-0.9-0.1-1.6,0.6-1.7,1.4
			c0,0.1,0,0.2,0,0.2v35.5h-4.6c-0.9,0.1-1.5,0.8-1.4,1.7c0.1,0.8,0.7,1.4,1.4,1.4h74.2c0.9,0.1,1.6-0.6,1.7-1.4
			c0.1-0.9-0.6-1.6-1.4-1.7C113,228.1,113,228.1,112.9,228.1L112.9,228.1z M65,228.1h-9.3v-17c-0.1-2.6,1.9-4.7,4.4-4.9
			c2.6-0.1,4.7,1.9,4.9,4.4c0,0.1,0,0.3,0,0.4V228.1z"/>
		<path class="st5" d="M97.4,221.9c0.9,0,1.6-0.7,1.6-1.5c0,0,0,0,0,0v-18.5c0-0.9-0.7-1.6-1.5-1.6h0H78.9c-0.9,0-1.6,0.7-1.6,1.6
			l0,0v18.5c0,0.9,0.7,1.5,1.6,1.5H97.4z M89.7,203.4h6.2v15.4h-6.2V203.4z M80.4,203.4h6.2v15.4h-6.2V203.4z"/>
	</g>
</g>
</svg>
