<?xml version="1.0" encoding="utf-8"?>
<!-- Generator: Adobe Illustrator 24.1.3, SVG Export Plug-In . SVG Version: 6.00 Build 0)  -->
<svg version="1.1" id="レイヤー_1" xmlns="http://www.w3.org/2000/svg" xmlns:xlink="http://www.w3.org/1999/xlink" x="0px"
	 y="0px" viewBox="0 0 324 247" style="enable-background:new 0 0 324 247;" xml:space="preserve">
<style type="text/css">
	.st0{fill:none;}
	.st1{fill:#202B78;}
	.st2{fill:none;stroke:#A1CBED;stroke-width:2;stroke-miterlimit:10;}
	.st3{fill:#FFFFFF;}
	.st4{fill:none;stroke:#A1CBED;stroke-width:2;stroke-linecap:round;stroke-miterlimit:10;}
	.st5{fill:#FFFFFF;stroke:#A1CBED;stroke-width:2;stroke-linecap:round;stroke-miterlimit:10;}
	.st6{fill:#A1CBED;}
	.st7{fill:#FFFFFF;stroke:#A1CBED;stroke-width:2;stroke-miterlimit:10;}
</style>
<g id="レイヤー_2_1_">
	<g id="レイヤー_1OL">
		<rect x="0.5" y="0.5" class="st0" width="323" height="246"/>
		<path class="st1" d="M132.4,71.7v1.4h-8.6c-0.3,1.1-0.4,1.3-0.6,2h9.1c0,0.1-0.2,3.1-0.2,3.4h3v1.4H132c-0.3,2.9-0.6,3.5-1.2,3.9
			c-0.5,0.3-1,0.5-1.6,0.5h-3.7l-0.3-1.6l3.6,0.1c1.4,0,1.5-0.8,1.7-2.9h-11.9v-1.5h12c0.1-1.2,0.1-1.5,0.1-2H121
			c0.9-2.2,1.6-4.4,2-6.7h-2.4v2.7H119v-4.2h15.6v4.1h-1.5v-2.7h-8.6c-0.1,0.5-0.3,1.6-0.4,2H132.4z"/>
		<path class="st1" d="M154.2,81.2h-16.6v-1.3h16.6V81.2z M137.7,83c1.8-0.3,3.4-0.9,4.9-1.8l1.1,0.9c-1.6,1.1-3.4,1.9-5.3,2.3
			L137.7,83z M154.1,70.1h-7.5v1.1h5.7v7.7h-12.9v-7.6h5.7v-1.1h-7.5v-1.3h7.5v-1.2h1.5v1.2h7.5L154.1,70.1z M150.9,72.3H141v1.1
			h9.9L150.9,72.3z M150.9,74.4H141v1.2h9.9L150.9,74.4z M150.9,76.6H141v1.2h9.9L150.9,76.6z M149.2,81.2c1.5,1,3.2,1.6,5,1.8
			l-0.7,1.4c-2-0.4-3.8-1.1-5.5-2.2L149.2,81.2z"/>
		<path class="st1" d="M163.1,83.8c-0.6-3.2-1.3-6.3-2.2-9.4c-1,0.4-2.1,0.8-3.1,1.3l-0.6-1.7c0.5-0.2,2.8-1,3.2-1.1
			c-0.7-2.3-0.8-2.5-1.2-3.6l1.7-0.4c0.2,0.7,0.3,1,1.1,3.6c0.2,0,1.8-0.6,3.6-1.1c-0.4-0.8-0.9-1.6-1.4-2.4l1.4-0.6
			c0.6,0.8,1.2,1.7,1.6,2.6c0.5-0.1,1-0.1,1.5-0.1c2.2-0.1,3.9,1.7,4,3.8c0,0.1,0,0.1,0,0.2c0,2.6-2,4.1-4.7,4.1
			c-0.9,0-1.8-0.2-2.7-0.5l0.2-1.5c0.8,0.3,1.6,0.5,2.4,0.5c1.6,0,3.1-0.9,3.1-2.7c0-1.3-1-2.4-2.3-2.4c-0.1,0-0.2,0-0.3,0
			c-2.1,0.2-4.2,0.8-6.1,1.6c0.7,2.4,0.9,3.1,2.5,9.5L163.1,83.8z"/>
		<path class="st1" d="M180.3,72.8c-1.4,0.6-2.8,1.1-4.3,1.5l-0.3-1.4c1.6-0.3,3.1-0.8,4.5-1.4L180.3,72.8z M181.8,82.5
			c-1.7,0.9-3.5,1.6-5.4,1.9l-0.6-1.4c1.8-0.2,3.6-0.7,5.3-1.6L181.8,82.5z M179.5,70.3c-1-0.6-2-1-3.1-1.4l0.6-1.2
			c1.1,0.4,2.1,0.8,3.1,1.3L179.5,70.3z M190.5,73.9v7.5h-12.8v-7.5H190.5z M179.2,75v1.1h9.8V75H179.2z M179.2,77v1.2h9.8V77H179.2
			z M179.2,79.1v1.2h9.8v-1.2H179.2z M191.9,68.7v1c-0.4,0.7-0.9,1.4-1.5,2l-1.3-0.6c0.4-0.4,0.8-0.8,1.1-1.3H187
			c0.6,1,2,2.6,5.5,3.1l-0.7,1.4c-2.1-0.6-4.3-1.6-5.5-3.4c-0.8,1.4-2.4,2.4-4.9,2.8l-0.6-1.3c1.9-0.3,3.9-0.9,4.6-2.6h-2.2
			c-0.6,0.6-1.3,1.1-2,1.6l-0.9-1c1.2-0.7,2.2-1.7,3.1-2.8l1.5,0.2c-0.2,0.3-0.4,0.6-0.6,0.9L191.9,68.7z M191.9,84.4
			c-2-0.3-3.9-0.9-5.6-1.9l0.9-1c1.7,0.8,3.5,1.3,5.4,1.5L191.9,84.4z"/>
		<path class="st1" d="M194.9,74.8v-1.3h3.3v-5.8h1.4v5.8h2.9v1.3h-2.9c0.6,1.3,1.4,2.4,2.4,3.4l-0.9,1.3c-0.6-0.8-1.1-1.7-1.6-2.6
			v7.4h-1.4V77c-0.7,1.6-1.7,3-2.8,4.3l-0.6-1.5c1.4-1.4,2.6-3.1,3.4-5L194.9,74.8z M195.8,72.6c-0.1-1.3-0.4-2.5-0.9-3.7l1.2-0.3
			c0.5,1.2,0.8,2.4,1,3.6L195.8,72.6z M200.3,72.3c0.5-1.2,0.9-2.4,1.1-3.6l1.3,0.3c-0.2,1.3-0.6,2.6-1.2,3.8L200.3,72.3z
			 M211.4,77.1l0.2,1.4l-1.8,0.4v5.4h-1.5v-5.1l-6.3,1.3l-0.2-1.3l6.5-1.4V67.7h1.5v9.8L211.4,77.1z M206.1,76.7
			c-0.9-1-2-1.9-3.1-2.6l0.9-1.1c1.2,0.7,2.3,1.6,3.2,2.6L206.1,76.7z M206.6,72.1c-0.9-1-2-1.9-3.1-2.7l0.9-1
			c1.2,0.7,2.2,1.6,3.2,2.6L206.6,72.1z"/>
		<path class="st1" d="M229.7,71c-0.8,0-1.3-0.1-1.8-0.1c-0.6,0-1.2,0-1.8,0.2c-2.6,0.9-6.1,3.7-6.1,6.8c0,2.3,1.7,3.1,3.6,3.5
			c1.5,0.3,3,0.4,4.5,0.3l-0.3,1.7c-3.6-0.1-9.5-0.4-9.5-5.4c0-3.4,3.1-5.8,5.3-7c-0.5,0-6.8,0.4-8.7,0.6l-0.1-1.8
			c0.9,0,4-0.2,4.9-0.2c4.3-0.2,6-0.3,10.1-0.3L229.7,71z M225.9,73.2c0.8,1,1.5,2.2,2,3.4l-1.3,0.8c-0.5-1.2-1.1-2.4-1.9-3.5
			L225.9,73.2z M228.6,72c0.8,1,1.5,2.2,2,3.4l-1.3,0.8c-0.5-1.2-1.1-2.4-1.9-3.5L228.6,72z"/>
		<path class="st1" d="M89.5,105.8c2.6-1.5,4.5-3.9,5.5-6.8l1.5,0.4c-1.1,3.1-3.2,5.8-6,7.6L89.5,105.8z M97.8,115.8l-0.3-1.6h2.7
			c0.5,0,0.9-0.2,1.2-0.6c0.6-1.1,0.7-4.1,0.8-6.7h-4.6c-0.5,4.6-2.2,7.1-6.8,8.9l-0.9-1.3c3.7-1.3,5.8-3.2,6.1-7.5h-3.6v-1.4h11.3
			c0,5.6-0.5,8.2-1,9.1c-0.5,0.9-1.4,1.3-2.4,1.2H97.8z M101.4,99c1.1,2.7,3.1,5.1,5.5,6.7l-1,1.2c-2.6-1.9-4.7-4.5-6-7.5L101.4,99z
			"/>
		<path class="st1" d="M109.6,114.2c1.5-3.1,2.5-6.3,3.1-9.7h-2.9V103h3.1c0.2-1.1,0.3-1.8,0.4-3.2l1.8,0.1
			c-0.2,1.4-0.3,1.8-0.5,3.2h2c2.1,0,3.9,0.5,3.9,4.7c0,1.8-0.3,3.7-0.9,5.4c-0.5,1.2-1.8,2-3.1,1.8c-0.7,0-1.4,0-2.1-0.1l-0.1-1.7
			c0.7,0.1,1.3,0.2,2,0.2c1.2,0,1.7-0.4,2.1-1.6c0.4-1.4,0.6-2.7,0.5-4.2c0-3-1-3.1-3.2-3.1h-1.4c-0.6,3.6-1.7,7.1-3.2,10.4
			L109.6,114.2z M123.5,109.4c-0.1-2.6-0.9-5.1-2.5-7.2l1.3-0.7c2.1,2.1,2.7,5.3,3,7.6L123.5,109.4z"/>
		<path class="st1" d="M133.1,100.3c-0.4,2.1-0.7,4.2-0.6,6.4c0.2-0.4,0.7-1.3,1.4-2.3l0.9,0.9c-2.1,3-2.1,4.1-2.1,4.9l-1.5,0.1
			c-0.2-1.4-0.3-2.8-0.3-4.1c0-2,0.2-4,0.6-6L133.1,100.3z M141.6,100.2c0.1,2,0.2,4,0.2,5.9c0,3.9-0.2,7.5-6.7,9.1l-1.2-1.3
			c6.1-1.6,6.3-4.1,6.3-8.3c0-1.7,0-2.2-0.2-5.5L141.6,100.2z"/>
		<path class="st1" d="M153.6,115.3c-0.6-3.2-1.3-6.3-2.2-9.4c-1,0.4-2.1,0.8-3.1,1.3l-0.6-1.7c0.5-0.2,2.8-1,3.2-1.1
			c-0.7-2.3-0.8-2.5-1.2-3.6l1.7-0.4c0.2,0.7,0.3,1,1.1,3.6c0.2,0,1.8-0.6,3.6-1.1c-0.4-0.8-0.9-1.6-1.4-2.4l1.4-0.6
			c0.6,0.8,1.2,1.7,1.6,2.6c0.5-0.1,1-0.1,1.5-0.1c2.2-0.1,3.9,1.7,4,3.8c0,0.1,0,0.1,0,0.2c0,2.6-2.1,4.1-4.7,4.1
			c-0.9,0-1.8-0.2-2.7-0.5l0.2-1.5c0.8,0.3,1.6,0.5,2.4,0.5c1.6,0,3.1-0.9,3.1-2.7c0-1.3-1-2.4-2.3-2.4c-0.1,0-0.2,0-0.3,0
			c-2.1,0.2-4.2,0.8-6.1,1.6c0.7,2.4,0.9,3.1,2.5,9.5L153.6,115.3z"/>
		<path class="st1" d="M182.1,101.7v1.5h-4.7v3.6c0.1,0.4,0.2,0.8,0.2,1.2c0.1,0.5,0.1,0.9,0.1,1.4c0,4.8-4.2,5.6-7.4,5.7l-0.5-1.5
			c4.8,0.1,6.1-1.6,6.4-3.7c-0.5,1.1-1.6,1.8-2.9,1.7c-1.8,0-3.3-1.5-3.4-3.3c0-0.1,0-0.2,0-0.2c-0.1-2,1.5-3.6,3.4-3.7
			c0.1,0,0.2,0,0.3,0c0.7-0.1,1.5,0.2,2,0.7v-1.9h-8.9v-1.5h8.9v-2h1.6v2H182.1z M175.8,107.4c-0.1-1-1-1.7-2-1.6
			c-1.2-0.1-2.2,0.8-2.2,2c0,0.1,0,0.2,0,0.2c-0.1,1.2,0.9,2.2,2,2.2s2.2-0.9,2.2-2L175.8,107.4z"/>
		<path class="st1" d="M198,115.3c-2.6-2.1-5.3-4-8.2-5.6c-1.7-1-2.3-1.4-2.3-2.2s0.6-1.3,1.9-2.3c2.5-1.7,4.8-3.6,6.9-5.7l1.7,1
			c-2.3,2.2-4.8,4.2-7.5,5.9c-0.7,0.5-1.1,0.8-1.1,1s0.2,0.4,0.8,0.7s3,1.6,3.5,1.9c2.1,1.2,4.1,2.5,5.9,4.1L198,115.3z"/>
		<path class="st1" d="M208.6,108c-0.6,0.7-0.9,1.5-0.9,2.4c0,0.8,0.5,1.6,1.2,2c1,0.6,2,0.7,4,0.7c2,0,4.1-0.1,6.1-0.4l0.1,1.7
			c-1.3,0.1-3.5,0.3-5.7,0.3c-3,0-4.2-0.2-5.4-0.9c-1.2-0.7-1.9-1.9-1.9-3.3c0-1.2,0.4-2.3,1.2-3.3L208.6,108z M216.3,102.8
			c-1.5,0.5-2.9,1.2-4.2,2.1l-1.2-0.9c0.8-0.5,1.6-1,2.4-1.3c-0.7,0-4.2,0.1-6.3,0.1v-1.7c0.6,0,8,0,9.2,0L216.3,102.8z M217.3,99.1
			c0.7,1.1,1.3,2.2,1.8,3.4l-1.2,0.7c-0.4-1.2-1-2.4-1.7-3.5L217.3,99.1z M220.1,98.4c0.7,1.1,1.3,2.2,1.8,3.4l-1.2,0.7
			c-0.4-1.2-1-2.4-1.7-3.5L220.1,98.4z"/>
		<path class="st1" d="M230.2,102.2v1.3h-6.8v-1.3H230.2z M229.6,99.6v1.3H224v-1.3H229.6z M229.6,104.8v1.3H224v-1.3H229.6z
			 M229.6,107.4v1.3H224v-1.3H229.6z M229.6,110v5.5H224V110L229.6,110z M228.3,111.3h-3v2.9h3V111.3z M234,109.1
			c-0.1,4.6-2.5,6.2-3.3,6.7l-1-1.2c1.8-1.2,2.7-2.6,2.8-5.5h-1.9v-6.3h5.4c0.7-1.2,1.3-2.4,1.8-3.7l1.5,0.4c-0.4,1.1-1,2.2-1.6,3.3
			h1.7v6.3H237v4.7c0,0.4,0.1,0.5,0.5,0.5h0.6c0.3,0,0.5-0.1,0.6-0.4c0.1-0.7,0.2-1.3,0.2-2l1.4,0.3c-0.1,3.2-0.6,3.4-1.7,3.4h-1.7
			c-0.7,0-1.4-0.2-1.4-1.5v-5.1L234,109.1z M232.1,99.1c0.7,0.9,1.3,1.9,1.8,2.9l-1.3,0.7c-0.4-1-0.9-2-1.6-2.9L232.1,99.1z
			 M238.1,104.1h-5.9v3.6h5.9V104.1z"/>
		<path class="st1" d="M248.9,112.6h-6V100h6V112.6z M247.5,101.3h-3.2v4.1h3.2V101.3z M247.5,106.8h-3.2v4.4h3.2V106.8z
			 M258.7,114.4c0,0.6-0.1,1.5-1.6,1.5h-2.4l-0.3-1.5h2.2c0.3,0,0.5,0,0.5-0.5V110H252c-0.3,2.4-1.8,4.6-3.9,5.8l-1.1-1.2
			c1.8-1,3.6-2.4,3.6-7v-8h8L258.7,114.4z M257.3,105.4h-5.1v2.4c0,0.3,0,0.6,0,0.9h5.1L257.3,105.4z M257.3,101h-5.1v3.1h5.1V101z"
			/>
		<path class="st1" d="M97,141.4c-1.4-1.7-2.4-3.6-3.2-5.6h-2.8h-5.2v-1.6l5.3,0.1c0.8,0,1.7,0,2.2,0c-0.3-1-0.5-1.9-0.7-2.9
			l1.7-0.1c0.1,1,0.4,2,0.7,3c1.8-0.1,3.6-0.3,5.3-0.6l0.3,1.6c-1.7,0.3-3.4,0.5-5.1,0.6c0.7,1.7,1.7,3.3,2.9,4.7L97,141.4z
			 M90.2,140.1c-1.8,0.9-1.9,2-1.9,2.3c0,2.2,2.9,2.4,5.5,2.4c1.6,0,3.2-0.1,4.8-0.3v1.6c-1.6,0.2-3.1,0.2-4.7,0.2
			c-3.2,0-4.9-0.4-6.2-1.5c-0.7-0.6-1.1-1.5-1.1-2.4c0-1.3,0.8-2.6,2.6-3.5L90.2,140.1z"/>
		<path class="st1" d="M115.4,135c0-2.3,0-2.4-0.1-3.8h1.7c0,0.6,0,3.2,0,3.8l3.1-0.1v1.5l-3.1,0.1c0,0.3,0,1.8,0,2.1
			c0,2.6-0.3,3.7-2.8,3.7c-0.7,0-1.5-0.1-2.2-0.3l0.1-1.5c0.7,0.2,1.4,0.2,2.1,0.2c0.7,0,1.1,0,1.2-1c0-0.5,0-0.8,0-3.2l-6.5,0.2
			v4.9c0,3.1,1.3,3.1,4.6,3.1c2.9,0,4.2-0.1,5.1-0.2v1.6c-2.3,0.1-2.7,0.1-4.3,0.1c-4.3,0-7,0-7-4.8v-4.7l-2.8,0.1v-1.5l2.8-0.1
			v-3.8h1.6v3.7L115.4,135z"/>
		<path class="st1" d="M138.8,134c-0.6,0-1.1-0.1-1.8-0.1c-0.6,0-1.2,0-1.8,0.2c-2.6,0.9-6.1,3.6-6.1,6.8c0,2.3,1.7,3.1,3.6,3.5
			c1.5,0.3,3,0.4,4.5,0.3l-0.3,1.7c-3.6-0.1-9.5-0.4-9.5-5.4c0-3.4,3.1-5.8,5.3-7c-0.5,0-6.8,0.4-8.7,0.6l-0.2-1.8
			c1.1,0,4-0.2,4.9-0.2c4-0.2,5.7-0.3,10.1-0.3L138.8,134z"/>
		<path class="st1" d="M145.2,132.3c-0.3,1.7-0.4,3.4-0.4,5.1c0,2.8,0.2,6.7,2.2,6.7c0.8,0,1.8-0.7,3-4l1.3,0.8
			c-0.5,1.6-1.3,3-2.4,4.2c-0.5,0.5-1.2,0.9-2,0.9c-2.9,0-3.7-4-3.7-8.7c0-2,0.2-3.9,0.3-5.1L145.2,132.3z M156.2,144.3
			c0-0.5,0.1-1,0.1-1.8c0-4.7-1.4-7.3-3.3-8.8l1.3-0.9c2.1,1.8,4,4.3,3.7,11.5L156.2,144.3z"/>
		<path class="st1" d="M161.7,146.2c1.9-3.6,2.9-9.5,3.1-11h-2.6v-1.5h2.9c0.1-1.3,0.1-1.3,0.2-2.4l1.8,0.1
			c-0.1,0.9-0.1,1.2-0.3,2.3h4.9v1.5h-5.2c-0.6,3.9-1.6,7.8-3.1,11.5L161.7,146.2z M170.1,141.5c-0.4,0.5-0.6,1-0.6,1.6
			c0,1.6,2.1,1.7,4.2,1.7c0.6,0,2,0,3.4-0.1v1.6c-0.4,0-2.8,0.1-3.4,0.1c-2.1,0-5.8,0-5.8-3.1c0-0.9,0.3-1.7,0.9-2.4L170.1,141.5z
			 M176.7,137.7c-0.5,0-1-0.1-1.8-0.1c-1.7-0.1-3.3,0.2-4.9,0.8l-0.5-1.4c1.4-0.5,3.1-1.1,7.3-0.9V137.7z"/>
		<path class="st1" d="M180.8,146.2c1.8-3.5,2.9-9.4,3.1-11h-2.6v-1.5h2.8c0.1-1.3,0.1-1.3,0.2-2.4l1.7,0.1
			c-0.1,0.9-0.1,1.2-0.3,2.3h5v1.5h-5.2c-0.6,3.9-1.6,7.8-3.1,11.5L180.8,146.2z M189.2,141.5c-0.4,0.5-0.6,1-0.6,1.6
			c0,1.6,2.1,1.7,4.2,1.7c0.6,0,2,0,3.5-0.1v1.6c-0.4,0-2.8,0.1-3.4,0.1c-2.1,0-5.8,0-5.8-3.1c0-0.9,0.3-1.7,0.9-2.4L189.2,141.5z
			 M195.8,137.7c-0.5,0-1-0.1-1.8-0.1c-1.7-0.1-3.3,0.2-4.9,0.8l-0.5-1.4c2.3-0.8,4.8-1.1,7.3-0.9V137.7z M192.9,130.8
			c0.7,1.1,1.2,2.3,1.6,3.5l-1.3,0.7c-0.4-1.2-0.9-2.4-1.6-3.5L192.9,130.8z M195.6,130.1c0.7,1.1,1.3,2.3,1.7,3.5l-1.3,0.7
			c-0.4-1.2-0.9-2.4-1.6-3.6L195.6,130.1z"/>
		<path class="st1" d="M215.1,138.1c-1.6,0.3-3.2,0.4-4.9,0.5c0.5,1.1,1.2,2.1,1.9,3l-1.4,1c-0.9-1.2-1.7-2.5-2.3-3.9
			c-0.5,0-1.9,0.1-2.5,0.1h-5.7v-1.5l5.5,0.1c0.5,0,1.1,0,2.2,0c-0.2-0.7-0.4-1.4-0.6-2.1h-1.9h-4.5v-1.5h6.1
			c-0.1-0.7-0.2-1.5-0.3-2.2h1.7c0.1,0.8,0.1,1.4,0.2,2.2c1.6-0.1,3.3-0.2,4.9-0.5l0.1,1.5c-1.6,0.2-3.2,0.3-4.7,0.3
			c0.2,0.7,0.4,1.4,0.6,2.1c1.8-0.1,3.5-0.3,5.3-0.6L215.1,138.1z M204.4,141.3c-0.5,0.4-0.8,1-0.9,1.6c0,1.9,3.1,2,5.7,2
			c2.1,0,3.2-0.1,4.1-0.2v1.6c-0.9,0.1-1.6,0.1-3.6,0.1c-3.5,0-4.8-0.3-5.9-0.7c-1.1-0.4-1.9-1.4-2-2.6c0-1,0.5-2,1.3-2.7
			L204.4,141.3z"/>
		<path class="st1" d="M233.8,133.3v1.4H228v2.2h5.4v1.4H228v2.5c2,0.8,3.8,1.9,5.4,3.3l-1.1,1.6c-1.2-1.4-2.7-2.5-4.3-3.2v1
			c0,2.6-2.1,3.1-3.7,3.1c-3.5,0-4.3-1.9-4.3-3c0-1.9,1.9-3.3,4.5-3.3c0.6,0,1.2,0.1,1.8,0.2v-2.1h-6.6v-1.4h6.6v-2.2h-6.8v-1.4h6.8
			v-1.9h1.6v1.9H233.8z M226.4,141.8c-0.6-0.2-1.2-0.3-1.8-0.3c-1.7,0-3,0.7-3,1.9c0,0.4,0.2,1.7,2.6,1.7c1.6,0,2.3-0.6,2.3-2
			L226.4,141.8z"/>
		<path class="st1" d="M253.4,133.2v1.5h-4.7v3.6c0.1,0.4,0.2,0.8,0.2,1.2c0.1,0.5,0.1,0.9,0.1,1.4c0,4.8-4.2,5.6-7.4,5.7l-0.5-1.5
			c4.8,0.1,6.1-1.6,6.4-3.7c-0.5,1.1-1.6,1.8-2.9,1.7c-1.8,0-3.3-1.5-3.4-3.3c0-0.1,0-0.2,0-0.2c-0.1-2,1.5-3.6,3.4-3.7
			c0.1,0,0.2,0,0.3,0c0.7-0.1,1.5,0.2,2,0.7v-1.9h-8.9v-1.5h8.8v-2h1.6v2L253.4,133.2z M247.1,138.9c-0.1-1-1-1.7-2-1.6
			c-1.2-0.1-2.2,0.8-2.2,2c0,0.1,0,0.2,0,0.2c-0.1,1.2,0.7,2.2,1.9,2.3c1.2,0.1,2.2-0.7,2.3-1.9c0-0.1,0-0.1,0-0.2L247.1,138.9z"/>
		<path class="st1" d="M262.6,144.1c0,1.5-1.2,2.7-2.7,2.7c-1.5,0-2.7-1.2-2.7-2.7c0-1.5,1.2-2.7,2.7-2.7c0,0,0,0,0,0
			C261.4,141.4,262.6,142.6,262.6,144.1z M258.1,144.1c0,1,0.8,1.8,1.8,1.8s1.8-0.8,1.8-1.8s-0.8-1.8-1.8-1.8l0,0
			C258.9,142.3,258.1,143.1,258.1,144.1z"/>
		<path class="st2" d="M64.6,16.3h220c2.8,0,5,2.2,5,5v176c0,2.8-2.2,5-5,5h-220c-2.8,0-5-2.2-5-5v-176
			C59.6,18.5,61.9,16.3,64.6,16.3z"/>
		<rect x="50.9" y="8.6" class="st3" width="58.7" height="27.2"/>
		<path class="st1" d="M37.5,22.8h-2.4V4h2.7c5.8,0,7.6,2,7.6,5.4c0,4-3,5.5-6.6,5.5h-1.3V22.8z M37.5,12.8h0.7c2.4,0,5-0.4,5-3.4
			s-2.8-3.3-5.1-3.3h-0.6L37.5,12.8z"/>
		<path class="st1" d="M58.7,17c0,3.5-2.8,6.3-6.2,6.3s-6.3-2.8-6.3-6.2c0-3.5,2.8-6.3,6.2-6.3c0,0,0,0,0,0c3.4-0.1,6.2,2.7,6.2,6
			C58.7,16.9,58.7,16.9,58.7,17z M48.5,17c0,2.2,1.9,4,4.1,3.9c2.2,0,4-1.9,3.9-4.1c0-2.2-1.8-3.9-4-3.9C50.3,13,48.5,14.8,48.5,17z
			"/>
		<path class="st1" d="M64,5.8c-0.1,0.9-0.8,1.5-1.7,1.4c-0.8-0.1-1.4-0.7-1.4-1.4c-0.1-0.9,0.6-1.6,1.4-1.7C63.2,4,63.9,4.7,64,5.5
			C64,5.6,64,5.7,64,5.8z M63.6,22.8h-2.3V11.1h2.3L63.6,22.8z"/>
		<path class="st1" d="M69.4,12.7L69.4,12.7c0.8-1.3,2.1-2,3.6-1.9c3.3,0,4.2,2.2,4.2,5.1v7h-2.3v-6.7c0-2-0.3-3.4-2.6-3.4
			c-2.9,0-2.9,2.6-2.9,4.7v5.4h-2.3V11.1h2.3V12.7z"/>
		<path class="st1" d="M82.8,22.8h-2.3v-9.6h-1.2v-2.1h1.2V6.7h2.3v4.5H85v2.1h-2.2L82.8,22.8z"/>
		<path class="st1" d="M105.2,20.7v2.1H93l8.2-10.1c0.9-0.9,1.5-2.1,1.7-3.4c-0.1-2-1.7-3.6-3.7-3.6c-1.9,0-3.5,1.5-3.6,3.5h-2.3
			c0.4-3.3,2.5-5.6,6-5.6c3.2-0.1,5.9,2.3,6,5.5c0,0,0,0.1,0,0.1c0,1.4-0.5,2.8-1.4,3.9l-6.2,7.6H105.2z"/>
		<rect x="55.5" y="158.4" class="st3" width="68" height="60.6"/>
		<path class="st2" d="M34.9,163.6h78.7c2.8,0,5,2.2,5,5v56.9c0,2.8-2.2,5-5,5H34.9c-2.8,0-5-2.2-5-5v-56.9
			C29.9,165.8,32.1,163.6,34.9,163.6z"/>
		<line class="st2" x1="30" y1="219" x2="118.5" y2="219"/>
		<line class="st2" x1="80.2" y1="231.2" x2="83.1" y2="243.8"/>
		<line class="st2" x1="66.7" y1="234.8" x2="65.1" y2="243.8"/>
		<line class="st2" x1="57.7" y1="243.4" x2="91.2" y2="243.4"/>
		<path class="st4" d="M36.3,219.1c0-10.8,7.2-25.5,16-25.5s16,14.7,16,25.5H36.3z"/>
		<circle class="st5" cx="52.3" cy="187.1" r="9.1"/>
		<path class="st4" d="M43.2,184.3c0-5,4.1-9.1,9.1-9.1c5,0,9.1,4.1,9.1,9.1"/>
		<path class="st4" d="M63.9,188.5c0,0-4.7,3.8-7.6,4.4"/>
		<ellipse class="st6" cx="55.1" cy="192.6" rx="2" ry="1.9"/>
		<rect x="65.1" y="171.4" class="st7" width="47.6" height="37.5"/>
		<rect x="91.2" y="186.5" class="st7" width="18.1" height="17.4"/>
		<rect x="69.8" y="176.1" class="st7" width="15.4" height="14.1"/>
		<rect x="75.8" y="195.2" class="st7" width="10.7" height="9.1"/>
	</g>
</g>
</svg>
