<?xml version="1.0" encoding="utf-8"?>
<!-- Generator: Adobe Illustrator 24.1.3, SVG Export Plug-In . SVG Version: 6.00 Build 0)  -->
<svg version="1.1" id="レイヤー_1" xmlns="http://www.w3.org/2000/svg" xmlns:xlink="http://www.w3.org/1999/xlink" x="0px"
	 y="0px" viewBox="0 0 324 247" style="enable-background:new 0 0 324 247;" xml:space="preserve">
<style type="text/css">
	.st0{fill:none;}
	.st1{fill:#202B78;}
	.st2{fill:none;stroke:#A1CBED;stroke-width:2;stroke-miterlimit:10;}
	.st3{fill:#FFFFFF;}
	.st4{fill:#A1CBED;}
</style>
<g id="レイヤー_2_1_">
	<g id="レイヤー_1OL">
		<rect x="0.5" y="0.5" class="st0" width="323" height="246"/>
		<path class="st1" d="M135,74.2c0.7-0.1,1.5-0.2,2.3-0.2c1.6-0.1,3.1,0.3,4.4,1.1c1.1,0.9,1.8,2.2,1.8,3.6c0,1.9-1.3,3.6-3.2,4.1
			c-1,0.3-2.1,0.5-3.2,0.4l-0.3-1.5c1.6,0,4.9-0.1,4.9-3.1c0-1.1-0.6-3.3-4.3-3.3c-0.8,0-1.6,0.1-2.4,0.2v5.5c0,0.8-0.3,1.8-2.3,1.8
			c-2.4,0-4-1.4-4-3.5c0-3.1,3-4.2,4.6-4.9v-2.6h-4.3v-1.5h4.3v-2.3h1.6v2.3h4.3v1.5H135V74.2z M133.5,76c-1.1,0.4-3.1,1.3-3.1,3.3
			c0,1.2,1,2.1,2.2,2.1c0.1,0,0.1,0,0.2,0c0.6,0,0.7-0.2,0.7-0.5V76z M140.7,68.2c1.6,1.3,2.8,2.9,3.6,4.8l-1.5,0.9
			c-0.8-1.8-1.9-3.4-3.4-4.7L140.7,68.2z"/>
		<path class="st1" d="M156.1,72.6h6.7V74h-6.7v2.8h7.6v1.4h-7.6v4.3c0.1,0.8-0.5,1.5-1.2,1.6c-0.1,0-0.2,0-0.3,0H151l-0.3-1.5h3.3
			c0.2,0,0.6,0,0.6-0.5v-3.9H147v-1.4h7.6V74h-6.7v-1.4h6.7v-2.7c-3.2,0.2-5.3,0.2-6.7,0.2l-0.1-1.5c4.8,0.1,9.6-0.2,14.3-1.1
			l0.4,1.4c-2.1,0.4-4.2,0.7-6.3,0.8L156.1,72.6z"/>
		<path class="st1" d="M171.9,76.6c-0.6,0.3-0.9,0.4-1.9,0.8v5.3c0,0.6,0,1.5-1.6,1.5h-1.9l-0.2-1.5h1.6c0.3,0,0.6-0.1,0.6-0.5V78
			c-1.5,0.5-1.9,0.6-2.3,0.8l-0.3-1.5c0.6-0.2,1.2-0.3,2.6-0.8v-4.3h-2.4v-1.4h2.4v-3.3h1.5v3.3h2.1v1.4h-2.1v3.8
			c1-0.4,1.3-0.5,1.8-0.7L171.9,76.6z M178,67.5v1.8h4.1v1.4H178V73h4.7v1.4h-2v2h1.9v1.4h-1.9v5c0,0.7-0.2,1.4-1.6,1.4h-2.6
			l-0.3-1.5h2.5c0.6,0,0.6-0.3,0.6-0.6v-4.3h-7v-1.4h7v-2h-7.4V73h4.6v-2.4h-3.9v-1.4h3.9v-1.8H178z M175.3,82
			c-0.6-1.1-1.4-2.1-2.3-2.9l1.3-0.8c0.9,0.8,1.7,1.8,2.3,2.8L175.3,82z"/>
		<path class="st1" d="M200.8,70.2v1.5h-9.3c-0.1,1.2-0.4,2.4-0.8,3.5c1.4-0.9,3-1.3,4.7-1.3c4,0,4.9,2.7,4.9,4.3c0,4.9-5.5,5-8.8,5
			c-1.1,0-1.7,0-2.3-0.1l-0.3-1.6c0.6,0.1,1.7,0.1,3.1,0.1c3.4,0,6.6-0.4,6.6-3.4c0-2.2-1.5-3-3.4-3c-1.8,0-3.6,0.7-4.9,2
			c-0.1,0.1-0.3,0.6-0.4,0.7l-1.7-0.5c0.8-1.9,1.4-3.8,1.6-5.8h-4v-1.5h4.2c0.1-1,0.1-1.4,0.1-2.1h1.8c-0.1,0.7-0.1,1-0.2,2
			L200.8,70.2z"/>
		<path class="st1" d="M212.4,81.7c1.9-0.2,6.2-0.7,6.2-5.9c0-1.4-0.4-5.4-5.4-5.5c-0.2,2.1-0.5,6.5-2.4,9.5c-1.1,1.7-2.2,2.1-3,2.1
			c-1.8,0-3.2-2.1-3.2-5.1c0-4.9,3.6-8,8.3-8c5.8,0,7.4,4,7.4,7.1c0.1,2.1-0.8,4.2-2.4,5.6c-1.5,1.1-3.2,1.7-5,1.8L212.4,81.7z
			 M208.7,71.5c-1.6,1.3-2.6,3.3-2.5,5.3c0,1.2,0.4,3.3,1.7,3.3c0.8,0,1.3-0.7,1.8-1.4c1.5-2.6,1.8-6.3,2-8.3
			C210.6,70.5,209.6,70.8,208.7,71.5z"/>
		<path class="st1" d="M100.1,101.6v1.5h-4.7v3.6c0.1,0.4,0.2,0.8,0.2,1.2c0.1,0.5,0.1,0.9,0.1,1.4c0,4.8-4.2,5.6-7.3,5.8l-0.5-1.5
			c4.8,0,6.1-1.6,6.4-3.8c-0.5,1.1-1.6,1.8-2.8,1.7c-1.8,0-3.3-1.5-3.3-3.3c0-0.1,0-0.2,0-0.2c-0.1-1.9,1.4-3.6,3.4-3.7
			c0.1,0,0.2,0,0.3,0c0.7-0.1,1.5,0.2,2,0.7V103H85v-1.5h8.8v-2h1.7v2H100.1z M93.9,107.3c-0.1-1-1-1.7-2-1.6
			c-1.2-0.1-2.2,0.8-2.2,2c0,0.1,0,0.2,0,0.2c-0.1,1.2,0.9,2.2,2,2.2c1.2,0.1,2.2-0.9,2.2-2L93.9,107.3z"/>
		<path class="st1" d="M118.8,112.6c-2.3-2-4.5-4-6.6-6.2c-1.7-1.8-2.2-2-2.7-2s-1,0.3-1.7,1.2c-0.3,0.3-2.3,2.8-3.2,3.8l-1.2-1.4
			c0.7-0.6,3.3-3.6,3.9-4.1c0.6-0.7,1.4-1.1,2.3-1.1c1.3,0,2,0.7,3.5,2.2c0.9,0.9,3.3,3.1,4.4,4c0.8,0.7,1.6,1.4,2.5,2L118.8,112.6z
			 M114.9,100.9c0.9,0.9,1.7,2,2.4,3.1l-1.2,0.9c-0.6-1.2-1.4-2.2-2.3-3.2L114.9,100.9z M117.3,99.4c0.9,0.9,1.7,2,2.4,3.1l-1.2,1
			c-0.6-1.2-1.4-2.2-2.3-3.2L117.3,99.4z"/>
		<path class="st1" d="M138.1,102.3c-0.6-0.1-1.2-0.1-1.8-0.1c-0.6,0-1.2,0-1.8,0.2c-2.6,0.9-6.1,3.7-6.1,6.8c0,2.3,1.7,3.1,3.6,3.5
			c1.5,0.3,3,0.4,4.5,0.3l-0.3,1.8c-3.5-0.2-9.5-0.4-9.5-5.4c0-3.4,3.2-5.8,5.3-7c-0.5,0-6.7,0.4-8.7,0.6l-0.2-1.8
			c1.1,0,4-0.2,4.9-0.2c4-0.2,5.7-0.3,10.1-0.3L138.1,102.3z"/>
		<path class="st1" d="M149.7,113.2c1.9-0.2,6.2-0.7,6.2-5.9c0-1.4-0.4-5.4-5.4-5.5c-0.2,2.1-0.5,6.5-2.4,9.5
			c-1.1,1.7-2.2,2.1-3,2.1c-1.8,0-3.2-2.1-3.2-5.1c0-4.9,3.6-8,8.3-8c5.8,0,7.4,4,7.4,7.1c0.1,2.1-0.8,4.2-2.4,5.6
			c-1.5,1.1-3.2,1.7-5,1.8L149.7,113.2z M146,103c-1.6,1.3-2.6,3.3-2.5,5.3c0,1.2,0.4,3.3,1.7,3.3c0.8,0,1.3-0.7,1.8-1.4
			c1.5-2.6,1.8-6.3,2-8.3C147.9,102,146.9,102.4,146,103z"/>
		<path class="st1" d="M163.1,114.9l-0.7-1.5c4.6-0.8,6-2.6,6.1-7.1h-7v-1.5h14.6v1.5h-5.9C170,111.6,168,113.9,163.1,114.9z
			 M172.7,100.3v1.5h-9.8v-1.5H172.7z M174.2,98.7c0.5,1.2,0.9,2.4,1.2,3.7l-1.4,0.5c-0.2-1.3-0.5-2.5-1-3.7L174.2,98.7z
			 M176.9,98.3c0.5,1.2,0.9,2.4,1.1,3.7l-1.4,0.4c-0.2-1.3-0.5-2.5-1-3.7L176.9,98.3z"/>
		<path class="st1" d="M185.9,100.7c-0.9,7.8-3.4,11.8-4.6,13.7l-1.6-0.8c1.5-2.3,3.6-5.8,4.4-13.1L185.9,100.7z M193.2,114
			c-0.7-4.5-2.2-8.9-4.3-13l1.5-0.7c2.3,4.2,3.8,8.7,4.6,13.3L193.2,114z M192.7,99.2c0.8,1,1.4,2.2,1.9,3.4l-1.2,0.7
			c-0.4-1.2-1-2.4-1.8-3.4L192.7,99.2z M195.2,98.1c0.7,1,1.4,2.2,1.9,3.4l-1.2,0.7c-0.4-1.2-1-2.4-1.8-3.4L195.2,98.1z"/>
		<path class="st1" d="M208.9,114.9h-1.7v-8.4c-2.2,1.5-4.6,2.7-7.1,3.6l-0.8-1.5c5.1-1.7,9.6-4.8,12.9-9.1l1.5,1
			c-1.4,1.7-3,3.3-4.8,4.7V114.9z"/>
		<path class="st1" d="M231,100.6c-0.6,2.7-1.8,5.2-3.4,7.4c2.1,1.7,4.2,3.5,6.1,5.4l-1.4,1.3c-1.8-1.9-3.7-3.8-5.7-5.5
			c-2,2.3-4.5,4.2-7.3,5.5l-1-1.3c4.9-2.1,8.8-6.2,10.6-11.3h-9.6v-1.5H231z"/>
		<path class="st1" d="M237.9,107.9l-0.3-0.3l3.4-3.4l-3.4-3.4l0.3-0.3l3.4,3.4l3.4-3.4l0.3,0.3l-3.4,3.4l3.4,3.4l-0.3,0.3l-3.4-3.4
			L237.9,107.9z M239.3,104.2c0,0.5-0.4,0.9-0.9,0.9s-0.9-0.4-0.9-0.9c0-0.5,0.4-0.9,0.9-0.9c0,0,0,0,0,0
			C239,103.3,239.4,103.7,239.3,104.2L239.3,104.2z M242.2,101.3c0,0.5-0.4,0.9-0.9,0.9c-0.5,0-0.9-0.4-0.9-0.9
			c0-0.5,0.4-0.9,0.9-0.9C241.8,100.4,242.2,100.8,242.2,101.3z M242.2,107c0,0.5-0.4,0.9-0.9,0.9c-0.5,0-0.9-0.4-0.9-0.9
			c0-0.5,0.4-0.9,0.9-0.9l0,0C241.8,106.2,242.2,106.5,242.2,107L242.2,107z M245.1,104.2c0,0.5-0.4,0.9-0.9,0.9
			c-0.5,0-0.9-0.4-0.9-0.9c0-0.5,0.4-0.9,0.9-0.9S245.1,103.7,245.1,104.2L245.1,104.2z"/>
		<path class="st1" d="M251.8,100.1c-0.6,2.7-0.9,5.4-0.8,8.2c-0.1,2.1,0.1,4.3,0.6,6.4l-1.7,0.1c-0.3-2.1-0.5-4.2-0.5-6.3
			c0-2.9,0.2-5.7,0.8-8.6L251.8,100.1z M256.4,107.8c-0.5,0.7-0.9,1.5-0.9,2.4c0,1.6,1.8,1.9,3.8,1.9c1.4,0,2.8-0.1,4.1-0.2v1.7
			c-0.6,0.1-1.9,0.2-3.4,0.2c-2.7,0-6-0.3-6-3.3c0.1-1.1,0.4-2.1,1-3L256.4,107.8z M263,101.4v1.6h-8.4v-1.6H263z"/>
		<path class="st1" d="M101.7,145c-0.7-1.1-1.4-2.1-2.2-3.1c-1.1,1.9-2.6,3.6-4.3,4.9l-1-1.3c1.8-1.3,3.2-2.9,4.2-4.8
			c-1.1-1.2-2.3-2.3-3.6-3.3l1-1c1.1,0.9,2.2,1.9,3.2,2.9c0.6-1.5,1-3.1,1.1-4.7h-5.7v-1.4h3.6v-2.7h1.5v2.7h3.4v1.4h-1.2
			c-0.2,2-0.7,4-1.5,5.9c1,1.1,2,2.2,2.7,3.5L101.7,145z M105.1,142.8c-0.6-1.7-1.4-3.3-2.4-4.8l1.3-0.7c1,1.5,1.8,3.1,2.5,4.8
			L105.1,142.8z M109.3,133.9h1.7v1.5h-1.7v10.2c0,1-0.4,1.6-1.8,1.6h-2.7l-0.4-1.6h2.8c0.4,0,0.6,0,0.6-0.4v-9.9h-4.7v-1.5h4.7
			v-3.4h1.5L109.3,133.9z"/>
		<path class="st1" d="M122.6,130.5v1.8h7.2v1.4h-13.6v5.7c0.1,2.7-0.6,5.4-2,7.7l-1.2-1.1c0.5-0.8,0.9-1.6,1.2-2.6
			c0.3-1.3,0.5-2.6,0.5-3.9v-7.2h6.3v-1.8L122.6,130.5z M116.2,144.8c1-1.9,1.5-3.9,1.7-6l1.3,0.2c-0.2,2.2-0.8,4.4-1.8,6.4
			L116.2,144.8z M124.2,138.1c-1.2-1.2-2.5-2.1-4-2.8l0.9-1.2c1.5,0.7,2.9,1.7,4.1,2.8L124.2,138.1z M122,137.9v7.1
			c0,0.5,0.2,0.5,0.6,0.5h1.9c0.5,0,0.6-0.2,0.7-0.4c0.1-0.9,0.2-1.9,0.3-2.8l1.5,0.4c-0.3,3.2-0.5,3.4-0.8,3.7
			c-0.4,0.4-0.9,0.5-1.4,0.5H122c-1.3,0-1.4-0.8-1.4-1.3v-7.7L122,137.9z M128.7,145.5c-0.4-2.4-1.1-4.6-2.1-6.8l1.4-0.5
			c1,2.2,1.7,4.5,2.2,6.9L128.7,145.5z"/>
		<path class="st1" d="M137.5,131.3c-0.2,4.9-0.2,7-0.2,8.7c0,2.3,0.1,4.7,3.5,4.7c4.7,0,5.3-3.2,5.8-6l1.5,0.6
			c-0.6,3.3-1.7,7-7.2,7c-4.9,0-5.3-3.3-5.3-6.4c0-1.4,0.1-7.3,0.1-8.6L137.5,131.3z"/>
		<path class="st1" d="M167.2,133.8c-0.6-0.1-1.2-0.1-1.8-0.1c-0.6,0-1.2,0-1.8,0.2c-2.6,0.9-6.1,3.6-6.1,6.8c0,2.3,1.7,3.1,3.6,3.5
			c1.5,0.3,3,0.4,4.5,0.3l-0.3,1.8c-3.5-0.1-9.5-0.4-9.5-5.4c0-3.4,3.1-5.8,5.3-7c-0.5,0-6.7,0.4-8.7,0.6l-0.1-1.8
			c1.1,0,4-0.2,4.9-0.2c4-0.2,5.7-0.3,10.1-0.3L167.2,133.8z"/>
		<path class="st1" d="M177.6,137.2c0.7-0.1,1.5-0.2,2.2-0.2c1.6-0.1,3.1,0.3,4.5,1.1c1.1,0.9,1.8,2.2,1.8,3.6
			c0,1.9-1.3,3.6-3.2,4.1c-1,0.3-2.1,0.5-3.2,0.4l-0.3-1.5c1.6,0,4.9-0.1,4.9-3.1c0-1.1-0.6-3.3-4.3-3.3c-0.8,0-1.6,0.1-2.4,0.2v5.5
			c0,0.9-0.3,1.8-2.3,1.8c-2.4,0-4-1.4-4-3.5c0-3.1,3-4.2,4.6-4.9v-2.6h-4.3v-1.5h4.3v-2.3h1.6v2.3h4.3v1.5h-4.3L177.6,137.2z
			 M176.1,139c-1.1,0.4-3.1,1.3-3.1,3.3c0,1.2,1,2.1,2.2,2.1c0.1,0,0.1,0,0.2,0c0.6,0,0.7-0.2,0.7-0.5L176.1,139z M183.3,131.2
			c1.6,1.3,2.8,2.9,3.6,4.8l-1.5,0.9c-0.8-1.8-1.9-3.4-3.4-4.7L183.3,131.2z"/>
		<path class="st1" d="M194.6,131.6c-0.4,2.1-0.6,4.2-0.6,6.4c0.2-0.4,0.7-1.3,1.4-2.3l0.9,0.9c-2.1,3-2.1,4.1-2.1,4.9l-1.5,0.1
			c-0.2-1.4-0.3-2.8-0.3-4.1c0-2,0.2-4,0.6-6L194.6,131.6z M203.1,131.5c0.1,1.9,0.2,4,0.2,5.9c0,3.9-0.2,7.5-6.7,9.1l-1.2-1.2
			c6.1-1.6,6.2-4.1,6.2-8.3c0-1.7,0-2.2-0.2-5.5H203.1z"/>
		<path class="st1" d="M224,133.1v1.4h-5.7v2.2h5.4v1.4h-5.4v2.5c2,0.8,3.8,1.9,5.4,3.3l-1.1,1.6c-1.2-1.4-2.7-2.5-4.3-3.2v1
			c0,2.6-2.1,3.1-3.6,3.1c-3.5,0-4.3-1.9-4.3-3c0-1.9,1.9-3.3,4.5-3.3c0.6,0,1.2,0.1,1.8,0.2v-2.1h-6.6v-1.4h6.6v-2.2h-6.8v-1.4h6.8
			v-1.9h1.6v1.9H224z M216.7,141.6c-0.6-0.2-1.2-0.3-1.8-0.3c-1.7,0-3,0.7-3,1.9c0,0.3,0.2,1.7,2.6,1.7c1.6,0,2.3-0.6,2.3-2
			L216.7,141.6z"/>
		<path class="st1" d="M243.6,133.1v1.5h-4.7v3.6c0.1,0.4,0.2,0.8,0.2,1.2c0.1,0.5,0.1,0.9,0.1,1.4c0,4.8-4.2,5.6-7.3,5.8l-0.5-1.5
			c4.8,0.1,6.1-1.6,6.4-3.8c-0.5,1.1-1.6,1.8-2.8,1.7c-1.8,0-3.3-1.4-3.4-3.3c0-0.1,0-0.2,0-0.2c-0.1-2,1.5-3.6,3.4-3.7
			c0.1,0,0.2,0,0.3,0c0.7-0.1,1.5,0.2,2,0.7v-1.9h-8.9v-1.5h8.8v-2h1.6v2H243.6z M237.3,138.8c-0.1-1-1-1.7-2-1.6
			c-1.2-0.1-2.2,0.8-2.2,2c0,0.1,0,0.2,0,0.2c-0.1,1.2,0.9,2.2,2,2.2s2.2-0.9,2.2-2L237.3,138.8z"/>
		<path class="st1" d="M252.8,143.9c0,1.5-1.2,2.7-2.7,2.7s-2.7-1.2-2.7-2.7s1.2-2.7,2.7-2.7h0C251.6,141.2,252.8,142.4,252.8,143.9
			z M248.3,143.9c0,1,0.8,1.8,1.8,1.8s1.8-0.8,1.8-1.8c0-1-0.8-1.8-1.8-1.8C249.1,142.1,248.3,142.9,248.3,143.9
			C248.3,143.9,248.3,143.9,248.3,143.9L248.3,143.9z"/>
		<path class="st2" d="M64.6,16.1h219.8c2.8,0,5,2.2,5,5v176c0,2.8-2.2,5-5,5H64.6c-2.8,0-5-2.2-5-5v-176
			C59.6,18.3,61.8,16.1,64.6,16.1z"/>
		<rect x="50.9" y="8.4" class="st3" width="58.6" height="27.2"/>
		<path class="st1" d="M37.5,22.6h-2.3V3.8h2.7c5.8,0,7.6,2,7.6,5.4c0,4-3,5.5-6.6,5.5h-1.4V22.6z M37.5,12.6h0.8c2.4,0,5-0.4,5-3.4
			s-2.8-3.3-5.1-3.3h-0.6V12.6z"/>
		<path class="st1" d="M58.7,16.8c0,3.5-2.8,6.3-6.2,6.3c-3.5,0-6.3-2.8-6.3-6.2c0-3.5,2.8-6.3,6.2-6.3c0,0,0,0,0,0
			c3.4,0,6.2,2.7,6.2,6.1C58.7,16.7,58.7,16.8,58.7,16.8z M48.5,16.8c0,2.2,1.9,4,4.1,3.9c2.2,0,4-1.9,3.9-4.1c0-2.2-1.8-3.9-4-3.9
			C50.2,12.8,48.4,14.6,48.5,16.8z"/>
		<path class="st1" d="M63.9,5.6c0,0.9-0.7,1.5-1.6,1.5c-0.9,0-1.5-0.7-1.5-1.5c0-0.9,0.7-1.6,1.5-1.6S63.9,4.7,63.9,5.6
			C63.9,5.6,63.9,5.6,63.9,5.6z M63.5,22.6h-2.3V11h2.3V22.6z"/>
		<path class="st1" d="M69.3,12.5L69.3,12.5c0.7-1.2,2.1-2,3.5-1.9c3.3,0,4.2,2.2,4.2,5.1v7h-2.2V16c0-2-0.3-3.4-2.6-3.4
			c-2.9,0-2.9,2.6-2.9,4.7v5.4h-2.3V11h2.3V12.5z"/>
		<path class="st1" d="M82.7,22.6h-2.3V13h-1.2v-2h1.2V6.5h2.3V11h2.2v2.1h-2.2V22.6z"/>
		<path class="st1" d="M98.7,11.7c2,0,3.7-0.8,3.7-3c0.1-1.7-1.3-3.2-3-3.2c-0.1,0-0.1,0-0.2,0c-1.6-0.1-2.9,1.1-3.1,2.7h-2.3
			c0.2-2.8,2.6-4.9,5.4-4.8c0,0,0.1,0,0.1,0c3,0,5.4,1.9,5.4,5.1c0.1,1.8-0.9,3.4-2.4,4.3c1.8,0.9,2.8,2.7,2.7,4.7
			c0,3.5-2.6,5.6-6,5.6c-3,0.2-5.5-2.1-5.8-5h2.3c0.3,1.8,1.8,3.1,3.7,3c2,0,3.6-1.6,3.6-3.6c0,0,0-0.1,0-0.1
			c0.1-1.9-1.3-3.6-3.2-3.7c-0.3,0-0.5,0-0.8,0L98.7,11.7z"/>
		<rect x="34" y="171.9" class="st3" width="13" height="47.6"/>
		<rect x="34.1" y="174.5" class="st3" width="75.8" height="32.7"/>
		<rect x="41.8" y="186.1" class="st3" width="9.4" height="38.6"/>
		<path class="st2" d="M39.5,178.6h61.9c2.8,0,5,2.2,5,5v44.2c0,2.8-2.2,5-5,5H39.5c-2.8,0-5-2.2-5-5v-44.2
			C34.5,180.8,36.8,178.6,39.5,178.6z"/>
		<line class="st2" x1="34.6" y1="223.5" x2="106.4" y2="223.5"/>
		<line class="st2" x1="75.3" y1="233.4" x2="77.7" y2="243.6"/>
		<line class="st2" x1="64.4" y1="236.3" x2="63.1" y2="243.6"/>
		<line class="st2" x1="57.1" y1="243.3" x2="84.2" y2="243.3"/>
		<polygon class="st3" points="62.4,217.3 32.7,230.6 32.3,176.4 42.5,176.4 		"/>
		<path class="st4" d="M56,217.4l-24.3,11.7c-2.1,1-4.7,0.1-5.7-2c0,0,0,0,0,0L2.8,178.8c-1-2.1-0.1-4.7,2-5.7c0,0,0,0,0,0
			l24.3-11.7c2.1-1,4.7-0.1,5.7,2l16.9,35.1c0.2,0.4,0,1-0.4,1.2c-0.4,0.2-1,0-1.2-0.4l-16.9-35.1c-0.6-1.2-2-1.7-3.3-1.2
			c0,0,0,0,0,0L5.6,174.8c-1.2,0.6-1.7,2-1.2,3.3l23.2,48.3c0.6,1.2,2.1,1.7,3.3,1.1l24.3-11.7c1.2-0.6,1.7-2.1,1.2-3.3L48.5,196
			c-0.2-0.4-0.1-1,0.4-1.2c0.4-0.2,1-0.1,1.2,0.4c0,0,0,0.1,0,0.1l7.9,16.5C59,213.8,58.1,216.3,56,217.4
			C56,217.4,56,217.4,56,217.4z"/>
		<path class="st4" d="M56.3,210.2L26,224.8c-0.4,0.2-1,0-1.2-0.4L4.1,181.5c-0.2-0.4,0-1,0.4-1.2l30.4-14.6c0.4-0.2,1,0,1.2,0.4
			l15.6,32.4c0.2,0.4,0,1-0.4,1.2c-0.4,0.2-1,0-1.2-0.4l-15.2-31.6L6.1,181.5L26,222.8L54.7,209l-6.2-13c-0.2-0.4-0.1-1,0.4-1.2
			c0.4-0.2,1-0.1,1.2,0.4c0,0,0,0.1,0,0.1l6.6,13.8C57,209.5,56.8,210,56.3,210.2C56.3,210.2,56.3,210.2,56.3,210.2z"/>
		<path class="st4" d="M20,171.2l-1.7,0.8c-0.4,0.2-1,0-1.2-0.4c0,0,0,0,0,0c-0.2-0.4,0-1,0.4-1.2l1.7-0.8c0.4-0.2,1-0.1,1.2,0.4
			C20.7,170.4,20.5,171,20,171.2C20.1,171.2,20,171.2,20,171.2z"/>
		<path class="st4" d="M45.2,219l-5.5,2.6c-0.4,0.2-1,0.1-1.2-0.4c-0.2-0.4-0.1-1,0.4-1.2c0,0,0.1,0,0.1,0l5.5-2.6
			c0.4-0.2,1,0,1.2,0.4c0,0,0,0,0,0C45.9,218.2,45.7,218.8,45.2,219z"/>
		<path class="st1" d="M120.3,191l-0.4-0.4l3.9-3.9l-3.9-3.9l0.4-0.4l3.9,3.9l3.9-3.9l0.4,0.4l-3.9,3.9l3.9,3.9l-0.4,0.4l-3.9-3.9
			L120.3,191z M121.9,186.7c0,0.6-0.4,1-1,1s-1-0.4-1-1s0.4-1,1-1C121.4,185.7,121.9,186.2,121.9,186.7
			C121.9,186.7,121.9,186.7,121.9,186.7L121.9,186.7z M125.2,183.5c0,0.6-0.4,1-1,1s-1-0.4-1-1s0.4-1,1-1
			C124.7,182.5,125.2,182.9,125.2,183.5C125.2,183.5,125.2,183.5,125.2,183.5L125.2,183.5z M125.2,190c0,0.6-0.4,1-1,1s-1-0.4-1-1
			s0.4-1,1-1S125.2,189.4,125.2,190C125.2,190,125.2,190,125.2,190z M128.4,186.7c0,0.6-0.4,1-1,1s-1-0.4-1-1s0.4-1,1-1
			S128.4,186.2,128.4,186.7z"/>
		<path class="st1" d="M132,185.9c1.4-0.8,2.5-2.1,3.2-3.6h6.2c-0.2,1.9-0.8,7.7-8,9.6l-0.5-1c2-0.4,3.7-1.4,5.1-2.8
			c-1.2-1-2.4-1.8-3.8-2.5c-0.5,0.5-1,0.9-1.5,1.2L132,185.9z M135.9,183.3c-0.3,0.5-0.6,1-1,1.5c1.4,0.6,2.6,1.4,3.8,2.4
			c0.8-1.2,1.3-2.5,1.5-3.9L135.9,183.3z"/>
		<path class="st1" d="M152,182.6l1.3,1.5c-0.2,1.7-0.9,3.4-1.9,4.8c-1.3,1.5-3.1,2.5-5.1,2.8l-0.5-1c3.8-0.6,6-2.6,6.5-7h-7.5v-1
			L152,182.6z M152.6,181c0.6,0.7,1.1,1.4,1.4,2.1l-0.8,0.6c-0.4-0.8-0.8-1.5-1.4-2.2L152.6,181z M154.4,180.7
			c0.5,0.7,1,1.4,1.4,2.2l-0.8,0.5c-0.3-0.8-0.8-1.5-1.3-2.2L154.4,180.7z"/>
		<path class="st1" d="M159.7,190.4c4.1-0.5,5.7-2.4,6.8-5.9l1,0.6c-1.2,3.4-2.8,6.2-8.9,6.5v-9.8h1.1L159.7,190.4z"/>
		<path class="st1" d="M172,187.8c-0.2-1-0.5-2-1-2.9l0.9-0.3c0.5,0.9,0.8,1.9,1,2.9L172,187.8z M171.9,191.1
			c3.7-0.8,5.4-2.4,6.1-6.7l1,0.2c-0.8,4.1-2.3,6.3-6.4,7.3L171.9,191.1z M174.6,187.3c-0.1-1-0.4-1.9-0.8-2.9l0.9-0.2
			c0.4,0.9,0.7,1.9,0.9,2.8L174.6,187.3z"/>
		<path class="st1" d="M191.9,188.4c-1.7-1-3.4-1.9-5.3-2.6v6.1h-1.2v-10.3h1.2v3.1c2,0.7,4,1.5,5.9,2.6L191.9,188.4z"/>
		<path class="st1" d="M201.6,186.7c0,0.7-0.5,1.3-1.2,1.3c0,0,0,0,0,0c-0.7-0.1-1.2-0.7-1.1-1.3c0.1-0.6,0.5-1.1,1.1-1.1
			C201.1,185.5,201.6,186.1,201.6,186.7z"/>
		<path class="st1" d="M210.5,181.9c0.8-0.1,1.7,0.1,2.3,0.6c0.7,0.5,1,1.4,1,2.2c0,2.8-2.6,2.8-3.5,2.8h-1.1v3.8H208v-9.4H210.5z
			 M210.4,186.4c0.8,0,2.2,0,2.2-1.8s-1.4-1.8-2.2-1.8h-1.3v3.6H210.4z"/>
		<path class="st1" d="M223.5,190.8c-0.9,0.5-1.9,0.7-2.9,0.7c-2.6,0.2-4.8-1.8-5-4.4c0-0.2,0-0.3,0-0.5c-0.1-2.6,2-4.9,4.6-4.9
			c0.1,0,0.3,0,0.4,0c1,0,2,0.3,2.9,0.9l-0.4,1c-0.7-0.6-1.6-0.9-2.5-0.9c-2.1-0.1-3.9,1.6-4,3.8s1.6,3.9,3.8,4c0.1,0,0.3,0,0.4,0
			c1,0,2-0.3,2.8-0.9L223.5,190.8z"/>
		<path class="st1" d="M232,190.1c-1.2,0.4-2.5,0.8-3.8,1.1l-0.1-1c0.4-0.1,0.9-0.2,2-0.4c0.4-1.6,0.6-3.3,0.7-5l1,0.1
			c-0.1,1.6-0.3,3.1-0.7,4.7c0.6-0.1,0.7-0.2,1-0.3L232,190.1z M230.5,181.2v1.9h1.5v0.9h-3.8v-0.9h1.4v-1.9L230.5,181.2z
			 M228.7,189c0-1.4-0.1-2.8-0.3-4.1l0.9-0.1c0.2,1.4,0.4,2.7,0.4,4.1L228.7,189z M239.3,185.1v0.9h-3.1c-0.1,0.3-0.2,0.6-0.3,0.9
			h3.1v4.6c0,0.6-0.2,0.7-0.8,0.7h-0.8l-0.2-0.9h0.6c0.3,0,0.3-0.1,0.3-0.3v-3.3h-1v4.4h-0.8v-4.4h-1v4.4h-0.9v-4.4h-1v4.5h-0.9
			v-5.4h2.6c0.1-0.3,0.2-0.6,0.3-0.9h-3.1v-0.9L239.3,185.1z M233.5,181.5v2h1.7v-2.3h0.9v2.3h1.7v-2h0.9v2.8h-6.3v-2.8H233.5z"/>
		<path class="st1" d="M245.9,182.7v-1.6h1v1.6h5.1v1h-5.1v2h4.4v1h-4c1.2,1.7,2.9,3.1,4.8,3.9l-0.6,1c-1.9-0.9-3.5-2.3-4.6-4v4.8
			h-1v-4.8c-1.2,1.7-2.8,3.1-4.6,4.1l-0.5-1c1.9-0.9,3.5-2.2,4.7-3.9h-3.9v-1h4.4v-2h-5.1v-1L245.9,182.7z"/>
		<path class="st1" d="M257.6,187.2c-0.6,0.3-0.9,0.4-1.5,0.6v3.5c0,0.6-0.2,1-1,1h-1.3l-0.1-1h1c0.1,0,0.4,0,0.4-0.4v-2.8
			c-0.8,0.3-1.1,0.4-1.5,0.4l-0.1-1c0.6-0.1,0.9-0.2,1.6-0.4v-2.9h-1.6v-0.9h1.6v-2.2h1v2.2h1.4v0.9h-1.4v2.6
			c0.7-0.2,0.9-0.3,1.3-0.5L257.6,187.2z M256.8,185.4c1.2-1.1,2.1-2.6,2.4-4.3l1,0.2c-0.2,0.6-0.4,1.3-0.7,1.8h1.9
			c0.3-0.7,0.5-1.3,0.7-2l1,0.2c-0.1,0.4-0.3,0.8-0.7,1.8h2.3v0.9h-2.3v1.8h2.1v0.8h-2.1v1.8h2.1v0.9h-2.1v1.9h2.5v0.9h-6.5v-6.9
			c-0.2,0.3-0.5,0.7-0.8,0.9L256.8,185.4z M261.4,184h-2.1v1.8h2.1V184z M261.4,186.6h-2.1v1.8h2.1V186.6z M261.4,189.3h-2.1v1.9
			h2.1V189.3z"/>
		<path class="st1" d="M266.3,191.4c1.3-0.1,2.6-0.5,3.7-1.1c0.4-0.2,0.7-0.6,1-0.9h-4.6v-0.9h5c0.1-0.3,0.1-0.5,0.2-0.8h1
			c0,0.3-0.1,0.5-0.1,0.8h5.1v0.9h-4.7c0.8,1,2,1.7,4.7,2.1l-0.4,1c-3.1-0.5-4.5-1.8-5.2-2.9c-1.1,2.1-3.9,2.6-5.1,2.8L266.3,191.4z
			 M266.3,186.2c0.9-0.3,1.8-0.7,2.6-1.2v-3.8h0.9v6.8h-0.9v-2c-0.3,0.2-1.3,0.7-2.3,1.1L266.3,186.2z M267.7,184.2
			c-0.3-0.7-0.7-1.4-1.1-2l0.8-0.4c0.5,0.6,0.9,1.3,1.2,2L267.7,184.2z M276.3,184.2v0.5h1.1v0.8h-1.1v1.6c0,0.7-0.7,0.7-0.9,0.7
			h-1.3l-0.2-0.9h1.1c0.3,0,0.4-0.1,0.4-0.3v-1.1h-5.1v-0.8h5.1v-0.4l-0.5-0.4c0.5-0.5,1-1,1.4-1.7l0.8,0.4c-0.3,0.5-0.7,1-1.2,1.4
			L276.3,184.2z M270.3,181.8c4.2,0,5.5-0.4,6.3-0.6l0.4,0.8c-2.1,0.5-4.3,0.7-6.5,0.7L270.3,181.8z M271.2,184.5
			c-0.2-0.5-0.4-0.9-0.7-1.4l0.8-0.3c0.3,0.4,0.6,0.9,0.7,1.4L271.2,184.5z M272.6,187.4c-0.4-0.5-0.9-0.8-1.4-1.1l0.5-0.7
			c0.6,0.3,1.1,0.7,1.5,1.1L272.6,187.4z M273.3,184.3c-0.2-0.5-0.4-1-0.7-1.4l0.8-0.3c0.3,0.4,0.6,0.9,0.8,1.4L273.3,184.3z"/>
	</g>
</g>
</svg>
