<svg xmlns="http://www.w3.org/2000/svg" viewBox="0 0 113.39 103.21"><defs><style>.cls-1{fill:#202b78;}.cls-2{fill:none;stroke:#202b78;stroke-miterlimit:10;stroke-width:5px;}.cls-3{fill:#fff;}</style></defs><g id="レイヤー_2" data-name="レイヤー 2"><g id="レイヤー_1OL" data-name="レイヤー 1OL"><path class="cls-1" d="M1.68,60.29c0,2,1.92,2.55,3.63,2.55s3.05-.68,3.05-1.91c0-1-.8-1.46-2.1-1.68L3.7,58.82c-1.34-.22-3.35-.75-3.35-3S2,52.44,4.87,52.44c2.26,0,4.65.82,4.8,3.54H8c-.14-.89-.65-2.09-3.35-2.09-1.24,0-2.63.52-2.63,1.85,0,.7.46,1.25,1.85,1.49l2.77.47c.88.16,3.4.59,3.4,2.9,0,2.87-2.58,3.69-4.85,3.69-2.55,0-5.19-.88-5.19-4Z"/><path class="cls-1" d="M16.47,54.18H12.2V52.72H22.42v1.46H18.15V64H16.47Z"/><path class="cls-1" d="M25.55,52.72h9.07v1.46h-7.4v3.27H34.4V58.9H27.22v3.66h7.56V64H25.55Z"/><path class="cls-1" d="M38.64,52.72h5.82c2.48,0,3.77,1.14,3.77,3.24a3.31,3.31,0,0,1-3.66,3.53H40.31V64H38.64ZM44.35,58c1.65,0,2.21-.9,2.21-2a1.7,1.7,0,0,0-1.91-1.82H40.31V58Z"/><path class="cls-1" d="M59.62,42.79h-9.4V39.28H51.3c8,0,9.18-3.78,9.36-5.9h3.73V65.51H59.62Z"/><line class="cls-2" x1="85.91" y1="0.43" x2="85.91" y2="103.21"/><rect class="cls-3" x="88.5" width="24.89" height="102.22"/></g></g></svg>