<svg xmlns="http://www.w3.org/2000/svg" viewBox="0 0 640 38.35"><defs><style>.cls-1{fill:none;stroke:#202b78;stroke-miterlimit:10;stroke-width:2px;}.cls-2{fill:#202b78;}</style></defs><g id="レイヤー_2" data-name="レイヤー 2"><g id="レイヤー_1OL" data-name="レイヤー 1OL"><line class="cls-1" y1="37.35" x2="640" y2="37.35"/><path class="cls-2" d="M2.68,25.28c0,2.81,2.69,3.54,5.07,3.54S12,27.87,12,26.16c0-1.43-1.12-2-2.92-2.33l-3.57-.6C3.63,22.92.84,22.17.84,19.12c0-2.86,2.26-4.78,6.29-4.78,3.15,0,6.47,1.15,6.69,4.93H11.49c-.2-1.23-.91-2.9-4.67-2.9-1.72,0-3.65.72-3.65,2.57,0,1,.64,1.74,2.57,2.07l3.85.66c1.24.22,4.73.81,4.73,4,0,4-3.58,5.14-6.75,5.14C4,30.84.35,29.61.35,25.28Z"/><path class="cls-2" d="M23.28,16.76H17.34v-2H31.55v2H25.61V30.45H23.28Z"/><path class="cls-2" d="M35.9,14.74H48.53v2H38.24v4.56h10v2h-10v5.08H48.75v2H35.9Z"/><path class="cls-2" d="M54.12,14.74h8.1c3.45,0,5.26,1.58,5.26,4.51s-1.81,4.91-5.11,4.91H56.45v6.29H54.12Zm7.94,7.39c2.31,0,3.08-1.25,3.08-2.84a2.38,2.38,0,0,0-2.66-2.53h-6v5.37Z"/><path class="cls-2" d="M72.93,11.29C72.93,4.68,76.71,0,85.31,0,93.41,0,97.1,4.32,97.1,10c0,11-15.3,10.53-18.95,17.78H97.1V32H72.35c.9-14.63,20-12.83,20-22,0-4.55-3.11-6.21-6.75-6.21-5.63,0-8,3.1-8.15,7.51Z"/></g></g></svg>