<?xml version="1.0" encoding="utf-8"?>
<!-- Generator: Adobe Illustrator 25.2.1, SVG Export Plug-In . SVG Version: 6.00 Build 0)  -->
<svg version="1.1" id="レイヤー_1" xmlns="http://www.w3.org/2000/svg" xmlns:xlink="http://www.w3.org/1999/xlink" x="0px"
	 y="0px" viewBox="0 0 118.4 110" style="enable-background:new 0 0 118.4 110;" xml:space="preserve">
<style type="text/css">
	.st0{fill:#202B78;}
	.st1{fill:none;stroke:#202B78;stroke-width:4.2591;stroke-miterlimit:10;}
	.st2{fill:#FFFFFF;}
</style>
<g id="レイヤー_2_1_">
	<g id="レイヤー_1OL">
		<path class="st0" d="M1.7,65.3c0,2,1.9,2.6,3.6,2.6s3-0.6,3-1.9c0-1-0.8-1.5-2.1-1.7l-2.6-0.4c-1.3-0.2-3.3-0.8-3.3-3
			s1.7-3.5,4.6-3.5c2.3,0,4.7,0.8,4.8,3.5H8c-0.1-0.9-0.7-2.1-3.3-2.1C3.4,58.9,2,59.4,2,60.7c0,0.7,0.5,1.2,1.8,1.5l2.8,0.5
			c0.9,0.2,3.4,0.6,3.4,2.9c0,2.9-2.6,3.7-4.8,3.7c-2.5,0-5.2-0.9-5.2-4H1.7z"/>
		<path class="st0" d="M16.5,59.2h-4.3v-1.5h10.2v1.5h-4.3V69h-1.7v-9.8H16.5z"/>
		<path class="st0" d="M25.5,57.7h9.1v1.5h-7.4v3.3h7.2v1.4h-7.2v3.7h7.6V69h-9.2L25.5,57.7L25.5,57.7z"/>
		<path class="st0" d="M38.6,57.7h5.8c2.5,0,3.8,1.1,3.8,3.2c0.1,1.8-1.2,3.4-3.1,3.5c-0.2,0-0.4,0-0.6,0h-4.3v4.5h-1.7L38.6,57.7
			L38.6,57.7z M44.3,63c1.7,0,2.2-0.9,2.2-2c0.1-0.9-0.6-1.8-1.6-1.8c-0.1,0-0.2,0-0.3,0h-4.3V63H44.3z"/>
		<path class="st0" d="M68.7,62.9H52.3v-4.1l17-20.4h4v20.7h5.4v3.8h-5.5v7.6h-4.5C68.7,70.5,68.7,62.9,68.7,62.9z M68.7,44.7
			L68.7,44.7L56.8,59.1h11.9V44.7z"/>
		<line class="st1" x1="90.9" y1="0" x2="90.9" y2="110"/>
		<rect x="93.5" y="17.1" class="st2" width="24.9" height="74.2"/>
	</g>
</g>
</svg>
