<svg xmlns="http://www.w3.org/2000/svg" viewBox="0 0 640 39.77"><defs><style>.cls-1{fill:none;stroke:#202b78;stroke-miterlimit:10;stroke-width:2px;}.cls-2{fill:#202b78;}</style></defs><g id="レイヤー_2" data-name="レイヤー 2"><g id="レイヤー_1OL" data-name="レイヤー 1OL"><line class="cls-1" y1="38.77" x2="640" y2="38.77"/><path class="cls-2" d="M2.68,25.28c0,2.81,2.69,3.54,5.06,3.54S12,27.87,12,26.16c0-1.43-1.12-2-2.93-2.33l-3.56-.6C3.63,22.92.84,22.17.84,19.12c0-2.86,2.26-4.78,6.29-4.78,3.14,0,6.47,1.15,6.69,4.93H11.49c-.2-1.23-.91-2.9-4.67-2.9-1.72,0-3.65.72-3.65,2.57,0,1,.64,1.74,2.57,2.07l3.85.66c1.24.22,4.73.81,4.73,4,0,4-3.58,5.14-6.75,5.14C4,30.84.35,29.61.35,25.28Z"/><path class="cls-2" d="M23.28,16.76H17.34v-2H31.55v2H25.61V30.45H23.28Z"/><path class="cls-2" d="M35.9,14.74H48.53v2H38.24v4.56h10v2h-10v5.08H48.75v2H35.9Z"/><path class="cls-2" d="M54.12,14.74h8.1c3.45,0,5.25,1.58,5.25,4.51s-1.8,4.91-5.1,4.91H56.45v6.29H54.12Zm7.94,7.39c2.31,0,3.08-1.25,3.08-2.84a2.38,2.38,0,0,0-2.66-2.53h-6v5.37Z"/><path class="cls-2" d="M82.38,13.5c.59,0,1.26,0,3,0,4.06,0,6.12-1.75,6.12-4.59,0-4-3.46-5.17-6.83-5.17-4.77,0-7,2.38-7.2,6.57H73C73.34,3.19,78.11,0,84.81,0c8,0,11.47,4.18,11.47,8.59,0,2.88-1.43,5.63-4.68,6.44v.09a7.28,7.28,0,0,1,6.08,7.51c0,5.4-3.74,10-12.24,10-3,0-13.27,0-13.27-10.62h4.5c.27,5.31,3.6,6.84,8.37,6.84,5,0,7.87-2.39,7.87-5.94S89.67,17.32,85,17.32c-1.62,0-2.21.09-2.66.09Z"/></g></g></svg>