<svg xmlns="http://www.w3.org/2000/svg" viewBox="0 0 640 39.69"><defs><style>.cls-1{fill:none;stroke:#202b78;stroke-miterlimit:10;stroke-width:2px;}.cls-2{fill:#202b78;}</style></defs><g id="レイヤー_2" data-name="レイヤー 2"><g id="レイヤー_1OL" data-name="レイヤー 1OL"><line class="cls-1" y1="38.69" x2="640" y2="38.69"/><path class="cls-2" d="M2.68,25.46C2.73,28.27,5.37,29,7.75,29S12,28.05,12,26.34c0-1.43-1.12-2-2.92-2.33l-3.57-.6C3.63,23.1.84,22.36.84,19.3c0-2.86,2.26-4.78,6.29-4.78,3.15,0,6.47,1.15,6.69,4.93H11.49c-.2-1.23-.91-2.9-4.67-2.9-1.72,0-3.65.72-3.65,2.57,0,1,.64,1.74,2.57,2.07l3.85.66c1.24.22,4.73.81,4.73,4,0,4-3.58,5.15-6.75,5.15C4,31,.35,29.79.35,25.46Z"/><path class="cls-2" d="M23.28,16.94H17.34v-2H31.55v2H25.61V30.63H23.28Z"/><path class="cls-2" d="M35.9,14.92H48.53v2H38.24V21.5h10v2h-10V28.6H48.75v2H35.9Z"/><path class="cls-2" d="M54.12,14.92h8.1c3.45,0,5.26,1.58,5.26,4.51s-1.81,4.91-5.11,4.91H56.45v6.29H54.12Zm7.94,7.39c2.31,0,3.08-1.25,3.08-2.84a2.38,2.38,0,0,0-2.66-2.53h-6v5.37Z"/><path class="cls-2" d="M88.91,24.52H72.48V20.38L89.45,0h4V20.74h5.48v3.78H93.41v7.61h-4.5Zm0-18.22h-.09L77,20.74H88.91Z"/></g></g></svg>