<?xml version="1.0" encoding="utf-8"?>
<!-- Generator: Adobe Illustrator 25.2.1, SVG Export Plug-In . SVG Version: 6.00 Build 0)  -->
<svg version="1.1" id="レイヤー_1" xmlns="http://www.w3.org/2000/svg" xmlns:xlink="http://www.w3.org/1999/xlink" x="0px"
	 y="0px" viewBox="0 0 118.4 102.8" style="enable-background:new 0 0 118.4 102.8;" xml:space="preserve">
<style type="text/css">
	.st0{fill:#202B78;}
	.st1{fill:none;stroke:#202B78;stroke-width:4.4238;stroke-miterlimit:10;}
	.st2{fill:#FFFFFF;}
</style>
<g id="レイヤー_2_1_">
	<g id="レイヤー_1OL">
		<path class="st0" d="M1.7,60.7c0,2,1.9,2.5,3.6,2.5s3-0.7,3-1.9c0-1-0.8-1.5-2.1-1.7l-2.6-0.4c-1.3-0.2-3.3-0.8-3.3-3
			s1.6-3.4,4.5-3.4c2.3,0,4.7,0.8,4.8,3.5H8c-0.1-0.9-0.7-2.1-3.3-2.1c-1.2,0-2.6,0.5-2.6,1.8c0,0.7,0.5,1.2,1.8,1.5l2.8,0.5
			c0.9,0.2,3.4,0.6,3.4,2.9c0,2.9-2.6,3.7-4.8,3.7c-2.5,0-5.2-0.9-5.2-4H1.7z"/>
		<path class="st0" d="M16.5,54.6h-4.3v-1.5h10.2v1.5h-4.3v9.8h-1.7V54.6z"/>
		<path class="st0" d="M25.5,53.2h9.1v1.5h-7.4v3.3h7.2v1.4h-7.2V63h7.6v1.4h-9.2V53.2z"/>
		<path class="st0" d="M38.6,53.2h5.8c2.5,0,3.8,1.1,3.8,3.2c0.1,1.8-1.2,3.4-3.1,3.5c-0.2,0-0.4,0-0.6,0h-4.3v4.5h-1.7V53.2z
			 M44.3,58.5c1.7,0,2.2-0.9,2.2-2c0.1-0.9-0.6-1.8-1.6-1.8c-0.1,0-0.2,0-0.3,0h-4.3v3.9L44.3,58.5z"/>
		<path class="st0" d="M62.2,47.5c0.6,0,1.3,0,3,0c4,0,6.1-1.8,6.1-4.6c0-4-3.5-5.2-6.8-5.2c-4.8,0-7,2.4-7.2,6.6h-4.5
			C53.1,37.2,57.9,34,64.6,34c8,0,11.5,4.2,11.5,8.6c0,2.9-1.4,5.6-4.7,6.4v0.1c3.6,0.6,6.3,3.8,6.1,7.5c0,5.4-3.7,10-12.2,10
			c-3,0.1-13.2,0.1-13.2-10.5h4.5c0.3,5.3,3.6,6.8,8.4,6.8c5,0,7.9-2.4,7.9-5.9s-3.2-5.6-7.9-5.6c-1.6,0-2.2,0.1-2.7,0.1L62.2,47.5z
			"/>
		<line class="st1" x1="90.9" y1="0" x2="90.9" y2="102.8"/>
		<rect x="93.5" y="7.3" class="st2" width="24.9" height="80"/>
	</g>
</g>
</svg>
