<svg xmlns="http://www.w3.org/2000/svg" viewBox="0 0 118.43 102.78"><defs><style>.cls-1{fill:#202b78;}.cls-2{fill:none;stroke:#202b78;stroke-miterlimit:10;stroke-width:5px;}.cls-3{fill:#fff;}</style></defs><g id="レイヤー_2" data-name="レイヤー 2"><g id="レイヤー_1OL" data-name="レイヤー 1OL"><path class="cls-1" d="M1.68,59.87c0,2,1.92,2.54,3.63,2.54s3.05-.68,3.05-1.91c0-1-.8-1.46-2.1-1.68L3.7,58.4c-1.34-.23-3.35-.76-3.35-3S2,52,4.87,52c2.26,0,4.65.82,4.8,3.54H8c-.14-.88-.65-2.09-3.35-2.09C3.41,53.46,2,54,2,55.31c0,.7.46,1.25,1.85,1.49l2.77.47c.88.16,3.4.59,3.4,2.9,0,2.87-2.58,3.7-4.85,3.7C2.64,63.87,0,63,0,59.87Z"/><path class="cls-1" d="M16.47,53.75H12.2V52.29H22.42v1.46H18.15v9.83H16.47Z"/><path class="cls-1" d="M25.55,52.29h9.07v1.46h-7.4V57H34.4v1.45H27.22v3.66h7.56v1.45H25.55Z"/><path class="cls-1" d="M38.64,52.29h5.82c2.48,0,3.77,1.14,3.77,3.25a3.31,3.31,0,0,1-3.66,3.52H40.31v4.52H38.64Zm5.71,5.32c1.65,0,2.21-.91,2.21-2a1.7,1.7,0,0,0-1.91-1.82H40.31v3.86Z"/><path class="cls-1" d="M52.74,44.43c0-6.62,3.78-11.3,12.37-11.3,8.1,0,11.79,4.32,11.79,10,0,11-15.3,10.53-18.94,17.77H76.9v4.14H52.15c.9-14.62,20-12.82,20-22,0-4.54-3.1-6.21-6.75-6.21-5.62,0-8,3.11-8.14,7.52Z"/><line class="cls-2" x1="90.95" x2="90.95" y2="102.78"/><rect class="cls-3" x="93.54" y="0.03" width="24.89" height="102.22"/></g></g></svg>