<?xml version="1.0" encoding="UTF-8"?>
<svg id="_レイヤー_2" data-name="レイヤー 2" xmlns="http://www.w3.org/2000/svg" viewBox="0 0 237 36">
  <defs>
    <style>
      .cls-1 {
        fill: #000;
      }

      .cls-1, .cls-2, .cls-3, .cls-4, .cls-5, .cls-6 {
        stroke-width: 0px;
      }

      .cls-2 {
        fill: #a40000;
      }

      .cls-3 {
        fill: none;
      }

      .cls-4 {
        fill: #e60012;
      }

      .cls-5 {
        fill: #002063;
      }

      .cls-6 {
        fill: #004098;
      }
    </style>
  </defs>
  <g id="_レイヤー_1-2" data-name="レイヤー 1">
    <g>
      <path class="cls-1" d="M41.18,13.02v-1.44c.94.06,1.84.08,3.31.08h5.06c1.48,0,2.38-.02,3.31-.08v1.44c-.94-.06-1.84-.08-3.31-.08h-5.06c-1.48,0-2.38.02-3.31.08ZM43.62,24.14h6.81c1.48,0,2.38.02,3.31.08v-1.44c-.94.06-1.84.08-3.31.08h-6.81c-1.48,0-2.38-.02-3.31-.08v1.44c.94-.06,1.84-.08,3.31-.08ZM45.4,18.3h3.26c1.48,0,2.38.02,3.31.08v-1.44c-.94.06-1.84.08-3.31.08h-3.26c-1.48,0-2.38-.02-3.31-.08v1.44c.94-.06,1.84-.08,3.31-.08ZM70.09,20.47v-1.26c-.88.05-1.74.08-3.06.08v-4.73c1.04,0,1.78.03,2.54.08v-1.26c-.76.05-1.5.07-2.54.08,0-1.11.03-1.87.08-2.67h-1.94c.05.79.07,1.56.08,2.67h-4.38c0-1.11.03-1.88.08-2.67h-1.94c.05.79.07,1.56.08,2.67-1.25,0-2.08-.03-2.93-.08v1.26c.85-.05,1.68-.07,2.93-.08-.02,1.1-.08,3.6-.15,4.73h-.09c-1.48,0-2.38-.02-3.32-.08v1.26c.93-.05,1.81-.08,3.26-.08-.38,1.92-1.35,3-3.08,3.65l.59.92c1-.57,2.26-1.24,3.06-2.2.57-.68.95-1.55,1.16-2.37h4.72v1.09c0,1.48-.02,2.38-.08,3.32h1.94c-.06-.94-.08-1.84-.08-3.32v-1.09c1.33,0,2.18.03,3.06.08ZM60.7,19.29c.1-1.12.15-3.05.16-4.74h4.38v4.74h-4.54ZM85.56,19.22c-.53.56-.77.96-1.15,1.59-2.33-1.74-3.79-3.37-4.63-5.49.39-.25.65-.44.98-.77,1.01,1.92,2.61,3.57,4.79,4.67ZM85.82,11.27v1.26c-.94-.06-1.84-.08-3.32-.08h-2.97c0,.47-.01,1-.01,1.64v7.39c0,1.48.02,2.38.08,3.32h-1.85c.06-.94.08-1.84.08-3.32v-5.18c-1.07,1.78-2.77,3.25-5.41,4.49-.17-.35-.31-.6-.5-.93,3.37-1.57,4.92-4.2,5.49-7.42h-2.24c-1.48,0-2.38.02-3.32.08v-1.26c.94.06,1.84.08,3.32.08h7.34c1.48,0,2.38-.02,3.32-.08ZM99.7,13.43c0-1.1.03-1.86.08-2.65h-1.94c.05.79.07,1.55.08,2.65-.59,0-1.05-.03-1.54-.06v1c.49-.03.95-.05,1.54-.06-.01,1.06-.1,4.63-.19,5.4-.18,1.55-.68,2.61-1.54,3.37l-.06-.47c-1.26.13-2.23.23-3.14.32v-.95h.39c1.17,0,1.8.02,2.54.06v-1c-.75.04-1.37.06-2.54.06h-.39v-1.03h.26c1.17,0,1.93.02,2.68.06h0s0,0,0,0h0c-.04-.71-.04-1.98-.04-2.44,0-1.11,0-1.73.04-2.44-.75.04-1.5.06-2.68.06h-.26v-1.02h.49c1.17,0,1.8.02,2.54.06v-1c-.75.04-1.37.06-2.54.06h-.49v-1.19c1.06-.11,2.08-.27,2.94-.49l-.45-1.3c-1.86.77-4.86,1.23-7.1,1.29l.04.72c.93,0,1.98-.03,3.05-.1v1.07h-.46c-1.17,0-1.89-.02-2.63-.06v1c.75-.04,1.46-.06,2.63-.06h.46v1.02h-.23c-1.17,0-1.98-.02-2.73-.06.04.71.04,1.33.04,2.44,0,.46,0,1.73-.04,2.44h0s0,0,0,0c.75-.04,1.55-.06,2.73-.06h.23v1.03h-.38c-1.17,0-1.89-.02-2.63-.06v1c.75-.04,1.46-.06,2.63-.06h.38v1.1c-.92.09-1.92.17-3.23.28l.22,1.31c2.96-.51,4.47-.75,7.3-1.23-.35.24-.75.44-1.2.61l.59.92c1-.57,2.26-1.24,3.06-2.2.69-.83,1.11-1.93,1.27-2.89.16-.92.22-3.48.23-5.56h1.58c-.02,3.14-.11,6.73-.37,8.25-.19,1.17-.24,1.21-1.2,1.03-.3-.05-.6-.12-.81-.16-.07.36-.12.6-.2.9.59.17,1.94.51,2.55.48.54-.03.94-.33,1.11-1.22.33-1.76.47-7.53.47-10.15h-3.14ZM92.98,19.26v-1.14h.26c.46,0,.86,0,1.22,0,0,.46,0,.87,0,1.13-.36,0-.76,0-1.21,0h-.26ZM93.24,16.15c.45,0,.85,0,1.21,0,0,.3,0,.7,0,1.12-.36,0-.76,0-1.22,0h-.26v-1.14h.26ZM91.46,16.15v1.14h-.23c-.47,0-.89,0-1.27,0,0-.42,0-.82,0-1.12.38,0,.8,0,1.26,0h.23ZM91.22,19.26c-.46,0-.89,0-1.26,0,0-.25,0-.66,0-1.13.38,0,.8,0,1.27,0h.23v1.14h-.23ZM119.78,23.29v1.09c-.94-.06-3.57-.08-4.07-.08h-4.03c-.51,0-3.13.02-4.07.08v-1.09c.94.06,3.57.08,4.07.08h1.12v-1.71c-.72,0-2.76.03-3.62.08v-1.09c.86.05,2.9.08,3.62.08v-1.71c-.48,0-1.98.02-3.01.05-.3.55-.69,1.1-1.18,1.66l-.74-.47c.81-1.1,1.21-2.63,1.27-3.88h1.45c-.06.6-.18,1.14-.36,1.66.98.03,2.14.04,2.56.04,0-1.06-.03-.84-.08-1.7h1.95c-.05.85-.08.63-.08,1.7.61,0,3.09-.03,4-.08v1.09c-.91-.05-3.39-.08-4-.08v1.71c.72,0,2.76-.03,3.62-.07v1.08c-.86-.06-2.9-.08-3.62-.08v1.71h1.12c.51,0,3.13-.02,4.07-.08ZM109.39,15.76h6.97c1.48,0,2.38.02,3.32.08v-1.03c-.94.06-1.84.08-3.32.08h-.4c.16-.29.7-1.35.88-1.8,1.09,0,1.85.03,2.63.08v-1.03c-.94.06-1.84.08-3.32.08h-2.35c.01-.52.03-.97.06-1.44h-1.94c.03.46.05.92.06,1.44h-2.29c-1.48,0-2.38-.02-3.32-.08v1.03c.78-.05,1.53-.07,2.6-.08.39.58.69,1.21.95,1.8h-.56c-1.48,0-2.31-.02-3.25-.08.09,2.65.11,7.31-1.64,9.54l.73.62c2.1-2.3,2.63-4.72,2.64-9.19.44,0,.93-.01,1.52-.01ZM110.8,13.09h4.32c-.06.43-.35,1.41-.55,1.8h-3.29c-.11-.56-.28-1.25-.48-1.8ZM174.58,28.46h-1.01c-.9,2.12-2.16,4.94-2.67,6.04.29-.01.73,0,1.04,0,.16-.51.37-1.09.6-1.7h2.11c.2.63.39,1.24.53,1.7.51,0,.86-.02,1.61,0-.53-1.35-1.92-5.19-2.22-6.04ZM172.79,32.17c.3-.76.61-1.55.91-2.29.17.47.46,1.36.76,2.29h-1.67ZM146.06,28.47c-.2,0-1.08.02-1.36.02-.3,0-1.09-.02-1.09-.02.02.76.04,1.7.04,2.5v1.03c0,1.16-.02,1.85-.04,2.5h0s0,0,0,0h.09c.32-.01.77-.02,1-.02s.67,0,.67,0c.24,0,.49,0,.69,0,.79,0,1.5-.25,2.07-.69.7-.55,1.07-1.39,1.07-2.44,0-1.97-1.09-2.89-3.14-2.89ZM145.85,33.81c-.3,0-.54,0-.73-.02h0c-.01-.5-.02-1.36-.02-1.84v-1c0-.48,0-1.29.02-1.77.89-.05,1.55-.06,1.96.28.41.34.62.93.62,1.9,0,1.7-.67,2.44-1.84,2.46ZM182.39,33.65c-.6.07-1.98.12-2.99.12-.03-.55-.03-1.43-.03-1.95v-.86c0-.78,0-1.99.03-2.5h-1.51c.02.41.04,1.71.03,2.5v.86c0,.71-.02,2.07-.03,2.67.99-.03,3.36-.01,4.5,0,0-.33,0-.61,0-.84ZM161.12,28.46s-.16.02-.45.02-.44,0-.44,0c.03.24.08.86.1,2.1.01.87.02,1.85.02,1.85-.02-.03-.91-1.08-1.77-2.11-.79-.94-1.54-1.86-1.54-1.86h-1.04c.02.73.02,1.54.02,2.93,0,.53,0,1.91-.06,3.12.28-.01.65-.01.92,0-.1-1.2-.07-1.6-.09-2.49,0-.2-.03-1.08-.03-1.62.4.44,2.87,3.4,3.4,4.11h.91c-.01-.68,0-3.94,0-3.94,0-1.18.03-1.66.05-2.09ZM167.41,29.3c0-.25-.01-.58,0-.84-1.84.03-3.16.02-5.18,0,0,.29.01.6,0,.84.64-.04,1.3-.06,1.88-.06.01,1.77,0,3.86-.05,5.26.58-.03.98-.02,1.51,0-.06-1.4-.06-3.49-.05-5.26.58,0,1.22.03,1.88.06ZM154.62,33.65c-.97.07-1.58.12-2.59.12,0-.35-.01-1.37-.01-2.09,1.04,0,1.38.02,2.33.06-.01-.3-.01-.58,0-.83-.77.04-1.29.07-2.33.07,0-.62,0-1.43.01-1.79,1.01,0,1.57.03,2.54.1,0-.23-.02-.45,0-.82-1.15,0-2.11.01-2.68.01-.26,0-1.32-.01-1.32-.01.02.63.04,1.7.04,2.5v.86c0,.68-.02,1.82-.04,2.67,0,0,.79-.02,1.01-.02.37,0,.92,0,1.48,0,.25,0,1.57,0,1.57,0-.01-.29,0-.68,0-.85ZM142.04,28.47c-.56.01-.94.01-1.51,0,.03,1.28.04,1.74.04,2.91,0,1.14-.01,2.32-.04,3.12.56-.01.94-.01,1.51,0-.02-.8-.04-1.98-.04-3.12,0-1.17,0-1.63.04-2.91ZM170.02,28.46c-.56.01-.94.01-1.51,0,.03,1.28.04,1.74.04,2.91,0,1.14-.01,2.32-.04,3.12.56-.01.94-.01,1.51,0-.02-.8-.04-1.98-.04-3.12,0-1.17,0-1.63.04-2.91ZM128.03,33.99c-.65-.9-1.25-1.74-1.74-2.45.66-.1,1.51-.47,1.51-1.66,0-.93-.68-1.42-1.96-1.42-.56,0-.88.02-1.22.02s-1.13,0-1.13,0c.02.84.02,1.58.02,2.6,0,1.01-.02,2.4-.05,3.42.54-.01.85-.01,1.47,0-.02-.62-.04-2.15-.05-2.83.51.76,1,1.5,1.53,2.4.18.3.31.44.59.43.5-.02.77-.04,1.55.02l.04-.11c-.31-.06-.56-.41-.56-.41ZM126.3,30.07c0,.98-.6,1.11-1.25,1.11h-.18c0-.55.01-1.72.02-2.1,1.07-.09,1.41.35,1.41.98ZM110.86,28.46h-1.01c-.9,2.12-2.16,4.94-2.67,6.04.29-.01.73,0,1.04,0,.16-.51.37-1.09.6-1.7h2.11c.2.63.39,1.24.53,1.7.51,0,.86-.02,1.61,0-.53-1.35-1.92-5.19-2.22-6.04ZM109.06,32.18c.3-.76.61-1.55.91-2.29.17.47.46,1.36.76,2.29h-1.67ZM97.71,34.62c1.95,0,3.21-1.23,3.21-3.14s-1.2-3.14-3.21-3.14-3.2,1.23-3.2,3.14,1.26,3.14,3.2,3.14ZM97.71,28.99c1.07,0,1.69.91,1.69,2.49s-.6,2.48-1.69,2.48-1.68-.88-1.68-2.48.58-2.49,1.68-2.49ZM90.14,28.47c-.2,0-1.08.02-1.36.02-.3,0-1.09-.02-1.09-.02.02.76.04,1.7.04,2.5v1.03c0,1.16-.02,1.85-.04,2.5h.09c.32-.01.77-.02,1-.02s.67,0,.67,0c.24,0,.49,0,.69,0,.79,0,1.5-.25,2.07-.69.7-.55,1.07-1.39,1.07-2.44,0-1.97-1.09-2.89-3.14-2.89ZM89.92,33.82c-.3,0-.54,0-.73-.02h0c-.01-.5-.02-1.36-.02-1.84v-1c0-.48,0-1.29.02-1.77.89-.05,1.55-.06,1.96.28.41.34.62.93.62,1.9,0,1.7-.67,2.44-1.84,2.46ZM79.45,31.74c-.62-.03-1.32-.06-2.34-.06,0,.87.05,2.46.05,2.82-.69-.01-.86-.01-1.51,0,.02-.85.04-1.99.04-2.67v-.86c0-.79-.02-1.87-.04-2.5,0,0,1.05.01,1.32.01.57,0,1.55,0,2.7-.01-.02.37,0,.59,0,.82-.7-.07-1.53-.1-2.56-.1,0,.36,0,1.17,0,1.79,1.02,0,1.69-.03,2.34-.07-.01.26-.01.53,0,.83ZM82.42,30.98c-.03,1.81.09,2.88,1.45,2.88,1.23,0,1.47-.98,1.47-2.33,0-1.27-.03-2.17-.08-3.07.47.01.56.01.97,0-.06,1.04-.06,2.26-.06,3.4,0,1.63-.77,2.75-2.53,2.75-1.95,0-2.64-.92-2.64-2.55,0-.75.04-2.07-.02-3.6.56,0,.94.01,1.52,0-.05.83-.07,1.54-.09,2.51ZM64.7,30.98c-.03,1.81.09,2.88,1.45,2.88,1.23,0,1.47-.98,1.47-2.33,0-1.27-.03-2.17-.08-3.07.47.01.56.01.97,0-.06,1.04-.06,2.26-.06,3.4,0,1.63-.77,2.75-2.53,2.75-1.95,0-2.64-.92-2.64-2.55,0-.75.04-2.07-.02-3.6.56,0,.94.01,1.52,0-.05.83-.07,1.54-.09,2.51ZM115,32.02c.02.89,0,1.29.09,2.49-.27-.01-.64-.01-.92,0,.06-1.21.06-2.59.06-3.12,0-1.39,0-2.19-.02-2.93h1.04s.75.91,1.54,1.86c.85,1.02,1.75,2.08,1.77,2.11,0,0,0-.97-.02-1.85-.02-1.24-.07-1.86-.1-2.1,0,0,.15,0,.44,0s.45-.02.45-.02c-.02.43-.05.92-.05,2.09,0,0-.01,3.26,0,3.95h-.91c-.52-.71-3-3.67-3.4-4.11,0,.54.03,1.42.03,1.62ZM47.64,34.5c-.68-.02-.91-.02-1.53,0-.05-1.39-.15-3.05-.23-4.16-.3.62-.56,1.15-.94,1.99-.37.83-.85,2.06-.85,2.06h-.77c-.45-1.13-1.31-3.04-1.74-3.97-.12,1.21-.27,2.68-.3,4.07-.4-.02-.59-.02-.96,0,.11-.76.31-2.23.43-3.16.1-.79.21-1.75.34-2.87h1.11c.57,1.29,1.33,3.03,1.87,4.17.37-.78,1.34-2.88,1.92-4.17h1.11s.08,1.13.23,2.87c.14,1.65.2,2.24.31,3.16ZM54.94,29.25c-.01,1.77,0,3.86.05,5.26-.53-.02-.93-.03-1.51,0,.06-1.4.06-3.49.05-5.26-.58,0-1.24.03-1.88.06.01-.25,0-.55,0-.84,2.02.02,3.34.03,5.18,0-.01.26,0,.59,0,.84-.67-.04-1.3-.06-1.88-.06ZM50.51,31.38c0,1.14.01,2.32.04,3.12-.56-.01-.94-.01-1.51,0,.02-.8.04-1.98.04-3.12,0-1.17,0-1.63-.04-2.91.56.01.94.01,1.51,0-.03,1.28-.04,1.74-.04,2.91ZM71.44,31.38c0,1.14.01,2.32.04,3.12-.56-.01-.94-.01-1.51,0,.02-.8.04-1.98.04-3.12,0-1.17,0-1.63-.04-2.91.56.01.94.01,1.51,0-.03,1.28-.04,1.74-.04,2.91ZM106.39,32.73c.03,1.4-1.14,1.88-2.31,1.88-.61,0-1.63-.2-2.11-.57.19-.49.27-.94.3-1.26h.21c.23.78.9,1.19,1.68,1.17.48-.01.88-.21.9-.77.02-.54-.38-.84-1.09-1.16-.57-.25-1.7-.66-1.76-1.8-.05-.95.69-1.87,2.06-1.87.78,0,1.54.26,2.07.63,0,0,0,0,0,0-.13.31-.22.63-.29.97l-.21-.04c-.28-.59-.84-.98-1.6-.91-.45.04-.86.3-.8.77.06.52.48.75,1.16,1.03.89.37,1.78.86,1.8,1.93ZM61.88,32.73c.03,1.4-1.14,1.88-2.31,1.88-.61,0-1.63-.2-2.12-.57.19-.49.27-.94.3-1.26h.21c.23.78.9,1.19,1.68,1.17.48-.01.88-.21.9-.77.02-.54-.38-.84-1.09-1.16-.57-.25-1.7-.66-1.76-1.8-.05-.92.58-1.87,1.96-1.87.78,0,1.44.29,1.96.63,0,0,0,0,0,0-.13.31-.22.63-.29.97l-.21-.04c-.26-.59-.74-.98-1.5-.91-.45.04-.75.3-.7.77.06.52.48.75,1.16,1.03.89.37,1.78.86,1.8,1.93ZM133.6,33.65c-.97.07-1.58.12-2.59.12,0-.35-.01-1.37-.01-2.09,1.04,0,1.38.02,2.33.06-.01-.3-.01-.58,0-.83-.77.04-1.29.07-2.33.07,0-.62,0-1.43.01-1.79,1.01,0,1.57.03,2.54.1,0-.23-.02-.45,0-.82-1.15,0-2.11.01-2.68.01-.26,0-1.32-.01-1.32-.01.02.63.04,1.7.04,2.5v.86c0,.68-.02,1.82-.04,2.67,0,0,.79-.02,1.01-.02.37,0,.92,0,1.48,0,.25,0,1.57,0,1.57,0-.01-.29,0-.68,0-.85ZM137.35,30.81c-.68-.28-1.1-.51-1.16-1.03-.06-.47.24-.73.7-.77.76-.07,1.24.32,1.5.91l.21.04c.06-.34.16-.66.29-.97,0,0,0,0,0,0-.52-.34-1.18-.63-1.96-.63-1.37,0-2.01.95-1.96,1.87.06,1.13,1.19,1.54,1.76,1.8.71.32,1.11.62,1.09,1.16-.02.56-.42.76-.9.77-.78.02-1.45-.39-1.68-1.17h-.21c-.03.32-.11.77-.3,1.26.48.37,1.51.57,2.11.57,1.16,0,2.34-.48,2.31-1.88-.02-1.06-.92-1.55-1.8-1.93ZM169.26,24.26c-.71.16-1.06.25-1.65.43l-.4-1.93c.33,0,1.05-.13,1.69-.27,4.54-1,8.06-3.05,9.19-7.78.36.12.64.21,1.01.3-1.44,5.95-4.72,8.06-9.84,9.24ZM171.08,16.67l1.03-1.25c-1.51-1.47-3.57-2.52-4.9-3.19l-.63.92c1.43.71,3.49,2.09,4.49,3.52ZM148.13,14.72c-1.44,5.95-4.72,8.06-9.84,9.24-.71.16-1.06.25-1.65.43l-.4-1.93c.33,0,1.05-.13,1.69-.27,4.54-1,8.06-3.05,9.19-7.78.36.12.64.21,1.01.3ZM142.3,13.8c-1.63-1.08-3.19-1.59-5.21-2.07l-.47,1.01c1.55.39,3.69,1.23,4.97,2.42l.72-1.36ZM135.1,16.53c1.57.31,3.48.96,5.1,2.14l.67-1.36c-1.77-1.03-3.59-1.53-5.33-1.81l-.43,1.03ZM146.31,11.19l-.92.39c.42.67.7,1.27,1.04,2.12l1.15-.49c-.36-.81-.91-1.64-1.27-2.03ZM149.29,12.5c-.36-.81-.91-1.64-1.27-2.03l-.92.39c.42.67.7,1.27,1.04,2.12l1.15-.49ZM133.38,16.49c-2.12,5.67-5.95,7.42-11.15,8v-9.21c0-1.48-.02-2.38-.08-3.32h1.94c-.06.94-.08,1.84-.08,3.32v7.16c3.88-.68,6.97-2.43,8.44-6.47l.93.52ZM162.95,12.4c-.33-.85-.62-1.45-1.04-2.12l.92-.39c.36.39.91,1.22,1.27,2.03l-1.15.49ZM165.81,11.2c-.36-.81-.91-1.64-1.27-2.03l-.92.39c.42.67.7,1.27,1.04,2.12l1.15-.49ZM158.7,17.76h2.17c1.48,0,2.38.02,3.32.08v-1.44c-.94.06-1.84.08-3.32.08h-7.19c-1.48,0-2.38-.02-3.32-.08v1.44c.94-.06,1.84-.08,3.32-.08h3.33v.33c.07,3.42-2.32,5.12-5.37,5.8l.46,1c2.17-.63,6.61-1.73,6.61-6.8v-.33ZM151.94,13.77c.94-.06,1.84-.08,3.32-.08h4.13c1.48,0,2.38.02,3.32.08v-1.44c-.94.06-1.84.08-3.32.08h-4.13c-1.48,0-2.38-.02-3.32-.08v1.44ZM184.14,23.96c-.71.16-1.06.25-1.65.43l-.4-1.93c.33,0,1.05-.13,1.69-.27,4.54-1,8.06-3.05,9.19-7.78.36.12.64.21,1.01.3-1.44,5.95-4.72,8.06-9.84,9.24ZM188.15,13.8c-1.63-1.08-3.19-1.59-5.21-2.07l-.47,1.01c1.55.39,3.69,1.23,4.97,2.42l.72-1.36ZM180.95,16.53c1.57.31,3.48.96,5.1,2.14l.67-1.36c-1.77-1.03-3.59-1.53-5.33-1.81l-.43,1.03ZM211.22,12.25h1.94c-.06.94-.08,2.38-.08,3.86,0,5.85-1.56,6.67-4.56,8.29l-.58-.89c2.43-1.24,3.36-2.33,3.36-7.41,0-1.48-.02-2.92-.08-3.86ZM222.49,16.26c-1.02,2.82-2.83,4.52-5.16,5.52v-6.32c0-1.48.02-2.38.08-3.32h-1.94c.06.94.08,1.84.08,3.32v8.76c3.64-.93,6.22-2.94,7.91-7.54l-.97-.41ZM200.78,16.41c2.34-.35,6.2-.94,6.63-1.01-.1,2.57-1.36,4.29-3.94,5.75l-.48-.78c1.08-.61,2.49-2.14,2.72-3.6-1.13.17-3.27.5-4.8.73l.55,4.06c.2,1.47.34,2.35.52,3.28l-1.67.22c-.07-.94-.17-1.83-.36-3.3l-.54-4.03c-.09.01-.17.03-.21.03-1.46.22-2.35.38-3.27.58l-.19-1.25c.94-.09,1.83-.2,3.29-.42.04,0,.12-.02.23-.03-.16-1.18-.29-1.97-.45-2.78l1.67-.22c.06.82.14,1.61.29,2.78Z"/>
      <path class="cls-1" d="M86.21,1.72c-.61-.48-1.67-.94-2.42-1.13l.21-.43c.61.12,2,.62,2.54.9l-.33.66ZM85.93,2.91c-.94,0-1.87.32-2.47.92.15-.79.25-1.46.32-2.18l-.71-.09c-.02.75-.16,2-.36,3.12v.03s.62.11.62.11c.05-.15.12-.26.25-.4.59-.66,1.39-1.09,2.24-1.09.98,0,1.58.5,1.58,1.27,0,.52-.26.98-.75,1.29-.53.32-1.15.54-1.97.54-.09,0-.13,0-.32,0l.08.4c1.08,0,2.02-.24,2.62-.55.71-.37,1.08-.96,1.08-1.68,0-1.03-.86-1.67-2.21-1.67ZM124.47,5.88l-.54.72c-1.01-.44-2.08-1.29-2.77-2.35v2.24s0,.39.03.53h-.71c.02-.14.03-.53.03-.53v-2.01c-.75,1.01-2.12,1.83-2.95,2.19l-.24-.32c.47-.14,1.96-1.05,2.72-2.31h-2.01s-.39,0-.53.03v-.52c.14.02.53.03.53.03h2.48v-1.85h-2.09s-.39,0-.53.03v-.52c.14.02.53.03.53.03h2.09v-.73s0-.39-.03-.53h.71c-.02.14-.03.53-.03.53v.73h2.15s.39,0,.53-.03v.52c-.14-.02-.53-.03-.53-.03h-2.15v1.85h2.55s.39,0,.53-.03v.52c-.14-.02-.53-.03-.53-.03h-2.24c.59.66,1.57,1.39,3,1.84ZM119.3,2.36c-.27-.37-.45-.56-.45-.56l-.38.2c.26.43.52,1.05.65,1.48l.72-.35c-.19-.21-.28-.41-.54-.77ZM122.35,3.48c.27-.27.68-.92.91-1.42l-.77-.27c-.12.56-.27,1.04-.55,1.47l.42.22ZM111.83,3.51h2.31s.39,0,.53.03v-.52c-.14.02-.53.03-.53.03h-2.58v-1.32h1.99s.39,0,.53.03v-.52c-.14.02-.53.03-.53.03h-1.99v-.73s0-.39.03-.53h-.71c.02.14.03.53.03.53v.73h-1.85s-.39,0-.53-.03v.52c.14-.02.53-.03.53-.03h1.85v1.32h-2.45s-.39,0-.53-.03v.52c.14-.02.53-.03.53-.03h2.1c-.58,1.13-1.73,2.27-2.84,2.75l.24.32c.86-.4,2.22-1.27,2.95-2.4v2.31s0,.39-.03.53h.71c-.02-.14-.03-.53-.03-.53v-2.63c.66,1.24,1.82,2.17,2.85,2.58l.51-.72c-1.3-.36-2.52-1.34-3.09-2.21ZM103,.84c-1.6-.3-3.27.41-3.85,2.05-.57,1.63.26,3.09,1.06,3.16.86.08,1.37-.65,1.78-1.8.33-.93.45-2.37.46-3.09,1.33.07,2.47,1.16,2.13,3.05-.3,1.67-1.73,1.96-2.39,2.03l.15.45c1.09-.21,2.7-.73,2.98-2.46.29-1.78-.71-3.1-2.32-3.39ZM100.33,5.62c-.41-.01-.88-1.01-.66-2.27.19-1.1,1.04-1.96,2.14-2.15,0,.47-.05,1.51-.3,2.48-.34,1.3-.79,1.95-1.18,1.94ZM46.59,1.26h-1.63v-.6s0-.39.03-.53h-.71c.02.14.03.53.03.53v.6h-3.27s-.39,0-.53-.03v.52c.14-.02.53-.03.53-.03h3.27v1.04c-.24-.27-.6-.44-1.03-.44-.76,0-1.38.62-1.38,1.38s.62,1.38,1.38,1.38c.41,0,.75-.15.99-.4-.08.54-.3.8-.57,1.08-.39.38-1.08.62-1.71.68l.06.47c.95-.14,1.68-.4,2.15-.84.47-.45.77-.89.77-1.92V1.73h1.63s.39,0,.53.03v-.52c-.14.02-.53.03-.53.03ZM43.41,4.61c-.48,0-.87-.4-.87-.9s.39-.9.87-.9c.54,0,.87.4.87.9s-.33.9-.87.9ZM58.14,2.01v-.4s.03-.4,0-.53h.72c-.03.14-.05.53-.05.53v.4c-.07,1.47-.02,2.34.25,2.97s.45.81.75.77c.33-.04.76-.92.85-1.26l.49.15c-.13.5-.62,1.69-1.39,1.8-.71.1-1.18-.68-1.43-1.51-.21-.7-.22-1.87-.18-2.92ZM63.48,5.04l.78-.09c-.03-1.26-.39-2.68-.98-3.67l-.5.15c.5.97.71,2.34.69,3.61ZM69.01,5.99c-1.22-.05-1.55-.56-1.6-1.02-.04-.44.2-.92,1.19-1.39.87-.42,2.35-.8,2.82-.91,0,0,.38-.09.52-.1l-.13-.56c-.13.06-.51.15-.51.15-.67.18-1.36.38-1.98.6-.23-.56-.45-1.25-.67-2.01,0,0-.1-.38-.11-.52l-.69.19c.06.12.16.5.16.5.24.87.46,1.54.68,2.08-.42.17-.79.36-1.07.57-.87.63-.84,1.4-.73,1.81.11.41.44.84,1.1,1.06.7.24,1.8.24,3.36.18,0,0,.39-.02.53,0v-.71c-.14.03-.53.05-.53.05-.87.05-1.6.07-2.34.04ZM129.09,1.98c.13-.16.23-.16.35-.01.13.17.82,1.08,1.41,1.84s1.47,1.92,2.04,2.55l.66-.54c-.41-.39-1.39-1.41-2.15-2.3-.72-.83-1.36-1.66-1.65-2.04s-.59-.37-.88-.03-1.8,1.98-2.33,2.51l.59.51c.28-.42,1.83-2.31,1.98-2.49ZM52.71,4.28v-1.14h1.67s.39,0,.53.03v-.52c-.14.02-.53.03-.53.03h-1.67v-.95h1.67s.39,0,.53.03v-.52c-.14.02-.53.03-.53.03h-1.67v-.47s0-.39.03-.53h-.71c.02.14.03.53.03.53v.47h-2.14s-.39,0-.53-.03v.52c.14-.02.53-.03.53-.03h2.14v.95h-2.14s-.39,0-.53-.03v.52c.14-.02.53-.03.53-.03h2.14v.96c-.35-.07-.71-.09-1.08-.07-1.36.07-1.72.79-1.73,1.33-.01.51.35,1.4,1.75,1.33,1.34-.07,1.7-1.08,1.72-1.82.72.33,1.4.87,2.01,1.54l.5-.56c-.7-.66-1.55-1.25-2.51-1.57ZM51,6.2c-.77.09-1.13-.39-1.15-.78-.02-.4.23-.94,1.18-.95.35,0,.69.05,1.03.14-.01.8-.22,1.48-1.06,1.58ZM92.53,6.7c1.25.37,2.23-.19,2.79-.75.67-.67,1-1.56,1.12-2.21l-.52-.13c-.06.29-.25.99-.61,1.52-.4.58-1.13,1.21-2.03,1.14s-1.22-.53-1.21-1.61.03-3.57.03-3.57c0,0,0-.4.03-.54h-.73c.02.14.02.54.02.54,0,0-.02,2.26-.03,3.28,0,1.14.08,2.02,1.14,2.34ZM79.23.8l-.56-.56c-.99,1.02-2.48,2.14-3.79,2.88v.5c1.38.89,2.65,2.02,3.74,3.36l.64-.52c-1.18-1.12-2.64-2.33-3.72-3.1,1.17-.71,2.47-1.61,3.69-2.56Z"/>
      <g>
        <path class="cls-5" d="M26.66,33.76c-3,2.98-7.85,2.98-10.85,0,1.5,1.49,3.93,1.48,5.43-.02,1.5,1.5,3.92,1.5,5.43.02ZM15.77,33.73c-2.98-3-2.98-7.85,0-10.85-1.49,1.5-1.48,3.93.02,5.43-1.5,1.5-1.5,3.92-.02,5.43ZM26.68,28.3l2.72-2.72,2.72,2.72-2.72,2.72-2.72-2.72Z"/>
        <path class="cls-6" d="M18.51,20.13l2.72,2.72-5.44,5.44c-1.5-1.5-1.5-3.94,0-5.44l2.72-2.72ZM15.79,33.74c1.5,1.5,3.94,1.5,5.44,0l-5.44-5.44c-1.5,1.5-1.5,3.94,0,5.44ZM21.23,33.74c1.5,1.5,3.94,1.5,5.44,0l2.72-2.72-2.72-2.72-5.44,5.44ZM32.12,28.3l-2.72,2.72,3.47,3.47h5.44l-6.2-6.2ZM23.95,20.13l-2.72,2.72,5.44,5.44,2.72-2.72-5.44-5.44ZM35.6,24.83l-2.72-2.72-3.47,3.47,2.72,2.72,3.47-3.47Z"/>
        <rect class="cls-1" x="19.31" y="18.21" width="3.85" height="3.85" transform="translate(-8.02 20.91) rotate(-45)"/>
        <path class="cls-2" d="M27,16.08c-.2-1.16-1.09-2.09-2.22-2.36.4-.73.44-1.64.03-2.43l1.91,3.66c.19.36.28.75.28,1.13ZM17.66,11.29l-1.91,3.66c-.19.36-.28.75-.28,1.13.2-1.16,1.09-2.09,2.22-2.36-.4-.73-.44-1.64-.03-2.43Z"/>
        <path class="cls-4" d="M27,16.08c0,.64-.25,1.26-.71,1.72l-2.33,2.33-2.72-2.72,3.12-3.12c.17-.17.31-.37.43-.57,1.14.27,2.02,1.2,2.22,2.36ZM15.46,16.08c0,.64.25,1.26.71,1.72l2.33,2.33,2.72-2.72-3.12-3.12c-.17-.17-.31-.37-.43-.57-1.14.27-2.02,1.2-2.22,2.36ZM21.23,9.85c.53,0,1.04.03,1.56.08.83.08,1.6.57,2.02,1.36.41.79.37,1.7-.03,2.43-.22-.05-.45-.08-.68-.08h-5.72c-.24,0-.46.03-.68.08-.4-.73-.44-1.64-.03-2.43.42-.79,1.19-1.28,2.02-1.36.51-.05,1.03-.08,1.56-.08Z"/>
      </g>
    </g>
    <rect class="cls-3" width="237" height="36"/>
  </g>
</svg>