<svg xmlns="http://www.w3.org/2000/svg" width="301" height="236" viewBox="0 0 301 236">
  <defs>
    <style>
      .cls-1 {
        fill-rule: evenodd;
      }
    </style>
  </defs>
  <path id="icon_freecall.svg" class="cls-1" d="M301,181.971V0H0V181.971H301ZM153.7,38.977V5H109.781C80.153,5,68.1,29.086,68.1,46.615V175.884h37.319V107.429h98.3V73.49h-98.3V51.01c0-7.659,7.655-12.033,14.241-12.033H153.7Zm50.052,26.607V48.012c0-4.414,3.136-9.035,9.819-9.035h18.355V5H213.651c-29.63,0-41.706,24.083-41.706,41.612V65.584h31.809Zm0,49.827v17.61c0,4.393,3.136,9.015,9.819,9.015h18.355v33.971H213.651c-29.63,0-41.706-24.1-41.706-41.652V115.47Zm-158.4,78.116c-0.614,13.809-3.865,21.546-8.206,27.1-4.826,6.2-13,11.765-25.765,14.213l-3.56-7.681c22.624-3.972,26.241-15.28,28-25.652H4.248v-7.98H45.359Zm17.053,26.279H53.859V191.957h8.553v27.849Zm24.535-7.717c0,19.422-15.254,21.657-27.389,23.073l-3.1-7.81c3.5-.269,12.475-0.883,17.319-4.031,2.638-1.719,4.571-5.215,4.571-10.009V191.1h8.594v20.989Zm53.471-3.837v8.459H95.6v-8.459h44.818Zm45.567-13.958v37.393H147.524V223.7h29.9V202.215h-29.4v-7.921h37.965Zm54.133,13.958v8.459H195.259v-8.459h44.859Zm20.385-3.668a84.888,84.888,0,0,1-1.55,16.748c-1.137,5.537-3.5,10.829-7.662,14.669l-6.372-6.59a19.448,19.448,0,0,0,6.185-11.436,66.607,66.607,0,0,0,1.248-12.476V192.761H260.5v11.823Zm13.891,19.732c1.689-.532,4.821-1.591,7.733-6.611a30.753,30.753,0,0,0,3.443-10.965l7.625,3.688c-1.27,6.438-3.91,12.566-8.676,17.111-6.965,6.424-15,6.8-18.2,6.932V191.135h8.072v33.181Z"/>
</svg>
