<svg xmlns="http://www.w3.org/2000/svg" width="67" height="38.562" viewBox="0 0 67 38.562">
  <defs>
    <style>
      .cls-1 {
        fill-rule: evenodd;
      }
    </style>
  </defs>
  <path id="freedial.svg" class="cls-1" d="M58.01,45.8V7.722H0V45.8H58.01Zm1.741-3.169a3.625,3.625,0,1,0,3.623-3.645,3.639,3.639,0,0,0-3.623,3.645m0.42,0a3.2,3.2,0,1,1,3.2,3.222A3.218,3.218,0,0,1,60.17,42.633Zm4.968,2.359h-0.7L63.036,42.8H62.418v2.19H61.861V40.174h1.356a1.619,1.619,0,0,1,1.078.332,1.144,1.144,0,0,1,.4.928,1.19,1.19,0,0,1-.288.785,1.482,1.482,0,0,1-.8.465l1.531,2.308m-2.72-2.676h0.7a1.052,1.052,0,0,0,.718-0.241,0.777,0.777,0,0,0,.274-0.607,0.8,0.8,0,0,0-.978-0.805H62.418v1.654ZM14.576,37.258a7.2,7.2,0,0,1-7.133-7.494c0-3.917,3.857-7.046,7.133-8.918,3.274,1.872,7.131,5,7.131,8.918a7.2,7.2,0,0,1-7.131,7.494M36.432,29.68c0-3.918,3.856-7.049,7.131-8.919,3.276,1.871,7.131,5,7.131,8.919a7.139,7.139,0,1,1-14.261,0M58,13.648A32.535,32.535,0,0,0,43.336,16.98,31.077,31.077,0,0,0,29,13.648,31.072,31.072,0,0,0,14.656,16.98,32.495,32.495,0,0,0,0,13.648v3.334a29.155,29.155,0,0,1,11.03,2.105C7.447,21.5,3.9,25.151,3.9,29.762a10.873,10.873,0,0,0,10.755,10.75,10.661,10.661,0,0,0,10.5-10.75c0-4.611-3.293-8.264-6.879-10.675a28.32,28.32,0,0,1,21.43,0c-3.584,2.411-6.879,6.064-6.879,10.675a10.661,10.661,0,0,0,10.5,10.75,10.8,10.8,0,0,0,10.676-10.75c0-4.611-3.466-8.264-7.051-10.675A29.206,29.206,0,0,1,58,16.982V13.648Z" transform="translate(0 -7.719)"/>
</svg>
