<svg xmlns="http://www.w3.org/2000/svg" viewBox="0 0 467 91.32"><defs><style>.cls-1{fill:#004098;}.cls-2{fill:#e60012;}</style></defs><g id="レイヤー_2" data-name="レイヤー 2"><g id="レイヤー_1-2" data-name="レイヤー 1"><path class="cls-1" d="M11.81,47.83a8.68,8.68,0,0,0-2.39,1.74A20.54,20.54,0,0,0,7.7,51.21,34.4,34.4,0,0,0,3.3,58a33.92,33.92,0,0,0-1.75,3.71,16.46,16.46,0,0,0-1.07,3.5A31.94,31.94,0,0,0,0,68.6a26.6,26.6,0,0,0,.17,3.68A25.65,25.65,0,0,0,2.11,78.9c.21.54.39,1.06.64,1.57a11.2,11.2,0,0,0,.68,1.1c.37.55.73,1.12,1.15,1.63a2.7,2.7,0,0,0,1.09.92c.82.29,1.65.51,2.49.73a38.5,38.5,0,0,0,7.64,1.29,42,42,0,0,0,4.76,0c1.33-.07,2.65-.16,4-.34a24.36,24.36,0,0,0,7.72-2.37A22.74,22.74,0,0,0,36,81.13a14,14,0,0,0,2.82-3,25.17,25.17,0,0,0,3.08-5.5c.26-.64.54-1.27.75-1.94a2.36,2.36,0,0,0,.06-1.5A12.27,12.27,0,0,0,41.18,67c-1.27-1.67-2.63-3.25-3.93-4.89A26.13,26.13,0,0,0,33.55,58a28.9,28.9,0,0,1-2.64-2.43c-.8-.87-1.48-1.87-2.23-2.79a14.18,14.18,0,0,0-7.46-5.17,16.83,16.83,0,0,0-4.84-.56c-.77,0-1.6.13-2.41.25a9.46,9.46,0,0,0-2.16.51"/><path class="cls-2" d="M22.86,22.43c-1.15-.08-2.53.87-3.42,1.61a19.78,19.78,0,0,0-2,2,30.43,30.43,0,0,0-2.31,2.71A19.08,19.08,0,0,0,13.28,32,19.14,19.14,0,0,0,12,35.13a11.8,11.8,0,0,0-.42,3.35,19.61,19.61,0,0,0,.46,3.57,2.55,2.55,0,0,0,2.11,2.32,7.08,7.08,0,0,0,3.89-.57,18.76,18.76,0,0,1,2-.55c.48-.1.94-.11,1.45-.17a13.54,13.54,0,0,0,4.16-1.31,8.84,8.84,0,0,0,3.21-2.28,7.33,7.33,0,0,0,1.22-2.26,8.24,8.24,0,0,0,.29-3.09,12.73,12.73,0,0,0-.77-3.65,20.13,20.13,0,0,0-2.5-4.55,15,15,0,0,0-1.81-2c-.65-.62-1.63-1.5-2.41-1.5"/><path d="M47.49,71.45c2.47-2.75,7.84-8.81,8.89-9.94-.28-.39-.43-.57-.94-1.26-.64,1.62-5.54,7-8.62,10.46-3.55-4-18.3-20.66-24.13-27.28,3-3.24,5.85-6.35,5.85-9.76a7.42,7.42,0,0,0-14.84,0c0,3.88,3.6,7.12,6.74,10.73-3.17,3.51-7,7.84-12.25,13.76C.11,67.31.69,78.38,7.89,85.6s18.89,7.82,26.41.31c2.16-2,8.78-9.52,11.66-12.75,1.14,1.25,5.11,5.58,7.1,8.1a14.64,14.64,0,0,1,1.44,2h3.91C57.23,82.31,50.18,74.41,47.49,71.45ZM21.12,27.4c3.87,0,5.44,3.38,5.44,6.27,0,2.67-1.44,5.69-4.52,9-3.19-3.73-6-6.24-6-9.55C16.06,30.23,18.22,27.4,21.12,27.4ZM10.47,82.73c-7.65-7.59-6.27-18.28-.32-25.12,5.46-6.29,8.79-10,11-12.45,4.74,5.27,20.21,22.73,24.2,27.27-2.74,3.1-5.7,6.33-9,9.65A17.53,17.53,0,0,1,10.47,82.73Z"/><path d="M68.42,36.33V33.17c2.06.12,4,.18,7.25.18H86.73c3.23,0,5.19-.06,7.25-.18v3.16c-2.06-.12-4-.17-7.25-.17H75.67C72.43,36.16,70.48,36.21,68.42,36.33Zm5.33,24.31h14.9c3.23,0,5.19,0,7.25.18V57.66c-2.06.12-4,.17-7.25.17H73.75c-3.23,0-5.19,0-7.25-.17v3.16C68.56,60.69,70.52,60.64,73.75,60.64Zm3.89-12.75h7.12c3.23,0,5.19,0,7.25.17V44.9c-2.06.12-4,.18-7.25.18H77.64c-3.24,0-5.19-.06-7.25-.18v3.16C72.45,47.94,74.4,47.89,77.64,47.89Zm54,4.74V49.87c-1.93.11-3.8.17-6.7.17V39.7c2.27,0,3.88.07,5.55.16V37.1c-1.67.1-3.28.15-5.55.17,0-2.42.07-4.1.17-5.83h-4.23c.1,1.73.15,3.41.17,5.84h-9.58c0-2.43.07-4.11.17-5.84h-4.23c.1,1.73.15,3.41.17,5.83-2.75,0-4.55-.06-6.42-.17v2.76c1.87-.11,3.67-.16,6.41-.17,0,2.4-.18,7.88-.34,10.35H107c-3.23,0-5.19,0-7.25-.17v2.76c2-.12,4-.17,7.13-.17a9.77,9.77,0,0,1-6.73,8l1.3,2c2.19-1.25,4.94-2.7,6.7-4.81a13.32,13.32,0,0,0,2.53-5.18H121v2.39c0,3.24,0,5.2-.17,7.25h4.23c-.12-2.05-.17-4-.17-7.25V52.46C127.82,52.47,129.69,52.52,131.62,52.63ZM111.1,50c.23-2.44.33-6.67.35-10.35H121V50Zm54.35-.15a17.85,17.85,0,0,0-2.51,3.47c-5.11-3.79-8.3-7.37-10.12-12A10.86,10.86,0,0,0,155,39.68,23.83,23.83,0,0,0,165.45,49.89ZM166,32.51v2.76c-2.06-.12-4-.17-7.25-.17h-6.51c0,1,0,2.19,0,3.59V54.85c0,3.24.06,5.2.18,7.25h-4c.12-2.05.17-4,.17-7.25V43.53c-2.34,3.89-6.06,7.12-11.83,9.83-.36-.75-.68-1.32-1.09-2,7.36-3.43,10.75-9.17,12-16.22h-4.9c-3.23,0-5.19,0-7.25.17V32.51c2.06.12,4,.17,7.25.17h16.05C162,32.68,164,32.63,166,32.51Zm30.35,4.73c0-2.41.07-4.08.17-5.8H192.3c.11,1.72.16,3.39.17,5.78-1.28,0-2.29-.06-3.36-.12v2.19c1.07-.06,2.08-.1,3.36-.12,0,2.31-.22,10.13-.42,11.81-.4,3.38-1.48,5.72-3.36,7.37l-.14-1c-2.75.28-4.87.5-6.87.69V55.93h.85c2.57,0,3.93,0,5.56.14v-2.2c-1.63.1-3,.14-5.56.14h-.85V51.77h.56c2.57,0,4.23,0,5.86.14h0c-.09-1.55-.08-4.33-.08-5.33,0-2.43,0-3.79.08-5.33-1.63.09-3.29.13-5.86.13h-.56V39.16h1.07c2.57,0,3.92,0,5.55.13V37.1c-1.63.1-3,.14-5.55.14h-1.07V34.63a46.3,46.3,0,0,0,6.43-1.07l-1-2.85c-4.06,1.68-10.63,2.69-15.53,2.82l.09,1.59c2,0,4.34-.06,6.67-.21v2.33h-1c-2.56,0-4.12,0-5.75-.14v2.19c1.63-.09,3.19-.13,5.75-.13h1v2.22h-.51c-2.57,0-4.34,0-6-.13.09,1.54.09,2.9.09,5.33,0,1,0,3.78-.09,5.33h0c1.63-.1,3.4-.14,6-.14h.51V54h-.84c-2.57,0-4.12,0-5.75-.14v2.2c1.63-.1,3.18-.14,5.75-.14h.84v2.41l-7.08.61.49,2.86c6.46-1.12,9.77-1.64,16-2.7a12.36,12.36,0,0,1-2.62,1.33l1.3,2c2.19-1.25,4.93-2.7,6.7-4.81a13.94,13.94,0,0,0,2.78-6.33,111.64,111.64,0,0,0,.49-12.15h3.45c-.05,6.85-.25,14.71-.8,18-.43,2.56-.52,2.65-2.63,2.26-.65-.12-1.3-.26-1.76-.36-.15.8-.26,1.32-.43,2a24.86,24.86,0,0,0,5.58,1.05c1.18-.06,2-.72,2.42-2.67.72-3.84,1-16.46,1-22.19ZM181.68,50v-2.5h.56c1,0,1.88,0,2.67,0,0,1,0,1.91,0,2.46l-2.66,0Zm.56-6.79,2.65,0c0,.66,0,1.54,0,2.46l-2.67,0h-.56v-2.5Zm-3.89,0v2.5h-.51l-2.78,0c0-.93,0-1.8,0-2.45q1.24,0,2.76,0ZM177.84,50l-2.76,0c0-.55,0-1.45,0-2.46.83,0,1.75,0,2.78,0h.51V50Zm62.43,8.81v2.39c-2.06-.12-7.8-.17-8.91-.17h-8.81c-1.11,0-6.85,0-8.91.17V58.78c2.06.12,7.8.17,8.91.17H225V55.21c-1.58,0-6,.07-7.92.18V53c1.89.11,6.34.16,7.92.17V49.43c-1.05,0-4.33,0-6.59.12a21.24,21.24,0,0,1-2.57,3.64l-1.61-1A16.32,16.32,0,0,0,217,43.68h3.17a16.11,16.11,0,0,1-.77,3.62c2.13.06,4.69.09,5.59.09,0-2.32-.06-1.84-.17-3.71h4.26c-.11,1.87-.17,1.39-.18,3.71,1.33,0,6.75-.06,8.74-.17v2.39c-2-.12-7.41-.18-8.74-.18v3.74c1.58,0,6-.06,7.92-.15v2.37c-1.89-.13-6.34-.17-7.92-.18V59h2.45C232.47,59,238.21,58.9,240.27,58.78ZM217.56,42.32H232.8c3.24,0,5.2,0,7.25.17V40.24c-2.05.12-4,.18-7.25.18h-.86c.35-.64,1.53-3,1.93-3.93,2.38,0,4,.07,5.75.17V34.41c-2.05.12-4,.17-7.25.17h-5.13c0-1.13.07-2.13.13-3.14h-4.24c.06,1,.1,2,.13,3.14h-5c-3.23,0-5.19,0-7.25-.17v2.25c1.7-.1,3.34-.16,5.68-.17a24.92,24.92,0,0,1,2.09,3.93h-1.22c-3.24,0-5.06-.06-7.11-.18.19,5.8.24,16-3.58,20.86l1.59,1.35c4.6-5,5.74-10.33,5.78-20.1C215.2,42.33,216.28,42.32,217.56,42.32Zm3.09-5.84h9.44a18.48,18.48,0,0,1-1.19,3.94h-7.19A27.65,27.65,0,0,0,220.65,36.48ZM360.11,70.09H357.9c-2,4.63-4.73,10.8-5.84,13.2.64,0,1.6,0,2.28,0,.36-1.11.82-2.38,1.32-3.72h4.62c.44,1.38.85,2.71,1.15,3.72,1.11,0,1.88,0,3.54,0C363.81,80.34,360.77,71.94,360.11,70.09Zm-3.93,8.12c.65-1.67,1.34-3.39,2-5,.37,1,1,3,1.67,5Zm-58.44-8.09-3,0c-.66,0-2.37,0-2.37,0,0,1.67.07,3.72.07,5.47v2.25c0,2.54,0,4-.07,5.46h.19c.7,0,1.68,0,2.18,0h1.47l1.5,0a7.28,7.28,0,0,0,4.52-1.51,6.47,6.47,0,0,0,2.34-5.33C304.6,72.13,302.23,70.12,297.74,70.12Zm-.47,11.68a14.4,14.4,0,0,1-1.59,0h0c0-1.1-.05-3-.05-4V75.54c0-1.06,0-2.83,0-3.88,1.94-.11,3.4-.13,4.28.6s1.35,2,1.35,4.16C301.3,80.12,299.83,81.76,297.27,81.8Zm79.91-.35c-1.31.15-4.34.26-6.55.26-.06-1.2-.07-3.13-.07-4.25V75.58c0-1.7,0-4.34.07-5.46h-3.3c0,.9.09,3.73.08,5.46v1.88c0,1.55,0,4.53-.08,5.84,2.16-.07,7.34,0,9.84,0C377.16,82.58,377.15,82,377.18,81.45ZM330.68,70.1s-.34,0-1,0-1,0-1,0c.06.52.17,1.89.22,4.6,0,1.91,0,4,0,4l-3.87-4.6-3.36-4.06h-2.28c0,1.6,0,3.36,0,6.4,0,1.16,0,4.18-.14,6.82.62,0,1.43,0,2,0-.21-2.63-.15-3.5-.19-5.44,0-.43-.06-2.36-.06-3.54.88,1,6.28,7.44,7.43,9h2c0-1.49,0-8.63,0-8.63C330.57,72.1,330.64,71,330.68,70.1Zm13.74,1.83c0-.55,0-1.27,0-1.84-4,.07-6.92,0-11.33,0,0,.63,0,1.3,0,1.84,1.4-.08,2.86-.12,4.12-.14,0,3.86,0,8.44-.1,11.5a27.76,27.76,0,0,1,3.29,0c-.12-3.07-.13-7.64-.1-11.5C341.56,71.81,343,71.85,344.42,71.93Zm-28,9.51c-2.12.15-3.47.26-5.67.26,0-.76,0-3,0-4.58,2.27,0,3,0,5.1.14,0-.67,0-1.27,0-1.83-1.69.08-2.81.16-5.1.16,0-1.36,0-3.13,0-3.91,2.2,0,3.42.08,5.54.23a17.71,17.71,0,0,1,0-1.8l-5.86,0-2.88,0c.05,1.37.08,3.73.08,5.47v1.87c0,1.49,0,4-.08,5.84l2.21,0c.81,0,2,0,3.22,0l3.43,0C316.42,82.66,316.44,81.79,316.46,81.44ZM288.94,70.11c-1.23,0-2.06,0-3.29,0,.07,2.81.09,3.8.08,6.37s0,5.06-.08,6.81c1.23,0,2.07,0,3.29,0-.05-1.75-.08-4.32-.08-6.81S288.88,72.92,288.94,70.11Zm61.19,0c-1.24,0-2.07,0-3.3,0,.07,2.81.1,3.79.08,6.36s0,5.07-.08,6.82c1.24,0,2.07,0,3.3,0-.06-1.75-.09-4.32-.09-6.82S350.06,72.91,350.13,70.1ZM258.31,82.19c-1.41-2-2.72-3.8-3.79-5.37a3.45,3.45,0,0,0,3.29-3.62c0-2-1.48-3.1-4.29-3.1-1.22,0-1.93,0-2.68,0l-2.47,0c0,1.85,0,3.47,0,5.7s0,5.24-.1,7.48c1.19,0,1.86,0,3.22,0-.05-1.35-.09-4.7-.11-6.2,1.12,1.67,2.19,3.27,3.35,5.25.39.66.68,1,1.3,1a23.14,23.14,0,0,1,3.39,0l.08-.23A2.43,2.43,0,0,1,258.31,82.19Zm-3.78-8.58c0,2.14-1.31,2.43-2.73,2.43h-.39c0-1.19,0-3.77.05-4.58C253.79,71.26,254.53,72.21,254.53,73.61ZM220.77,70.1h-2.21c-2,4.64-4.73,10.8-5.84,13.21.63,0,1.6,0,2.28,0,.36-1.11.82-2.38,1.32-3.72h4.62c.44,1.38.85,2.71,1.15,3.72,1.11,0,1.88,0,3.53,0C224.47,80.35,221.43,72,220.77,70.1Zm-3.93,8.13c.65-1.67,1.34-3.39,2-5,.37,1,1,3,1.67,5ZM192,83.56c4.26,0,7-2.7,7-6.87s-2.62-6.86-7-6.86-7,2.69-7,6.86S187.78,83.56,192,83.56Zm0-12.32c2.34,0,3.68,2,3.68,5.45s-1.31,5.42-3.68,5.42-3.67-1.93-3.67-5.42S189.63,71.24,192,71.24Zm-16.57-1.12-3,0c-.67,0-2.38,0-2.38,0,0,1.66.08,3.72.08,5.46v2.25c0,2.54,0,4.06-.07,5.46h.19l2.19,0,1.46,0,1.5,0A7.23,7.23,0,0,0,180,81.77a6.46,6.46,0,0,0,2.34-5.33C182.32,72.13,180,70.12,175.46,70.12ZM175,81.81c-.67,0-1.19,0-1.6,0h0c0-1.1-.05-3-.05-4v-2.2c0-1.05,0-2.82,0-3.87,1.94-.11,3.4-.13,4.28.6s1.35,2,1.35,4.15C179,80.13,177.55,81.76,175,81.81Zm-22.9-4.55c-1.35-.07-2.88-.12-5.11-.12,0,1.91.1,5.38.12,6.16-1.52,0-1.89,0-3.31,0,0-1.87.08-4.35.08-5.84V75.58c0-1.74,0-4.09-.08-5.46l2.88,0,5.9,0c0,.81,0,1.3,0,1.79-1.54-.15-3.34-.22-5.59-.22,0,.78,0,2.55,0,3.91,2.24,0,3.71-.08,5.12-.16C152.07,76,152.07,76.6,152.1,77.26Zm6.49-1.66c-.07,4,.2,6.31,3.18,6.31,2.69,0,3.21-2.15,3.21-5.09,0-2.78-.06-4.74-.17-6.71,1,0,1.22,0,2.13,0-.13,2.27-.14,4.94-.14,7.44,0,3.55-1.68,6-5.53,6-4.26,0-5.77-2-5.77-5.57,0-1.65.08-4.53-.05-7.88,1.21,0,2.06,0,3.33,0C158.67,71.92,158.62,73.48,158.59,75.6Zm-38.76,0c-.06,4,.21,6.31,3.18,6.31,2.7,0,3.21-2.15,3.21-5.09,0-2.78,0-4.74-.16-6.71,1,0,1.22,0,2.12,0-.13,2.27-.13,4.94-.13,7.44,0,3.55-1.68,6-5.53,6-4.27,0-5.78-2-5.78-5.57,0-1.65.09-4.53,0-7.88,1.22,0,2.06,0,3.33,0C119.92,71.92,119.87,73.48,119.83,75.6Zm110,2.27c0,1.94,0,2.81.19,5.44-.59,0-1.4,0-2,0,.14-2.64.14-5.65.14-6.82,0-3,0-4.79,0-6.39h2.28s1.64,2,3.36,4.05c1.87,2.24,3.82,4.56,3.87,4.61s0-2.13,0-4c-.05-2.7-.16-4.07-.22-4.59,0,0,.32,0,1,0a9.46,9.46,0,0,0,1,0c0,1-.11,2-.11,4.58,0,0,0,7.13,0,8.63h-2c-1.15-1.56-6.55-8-7.43-9C229.76,75.51,229.82,77.43,229.82,77.87ZM82.55,83.29c-1.48,0-2,0-3.34,0-.12-3-.33-6.68-.5-9.09-.66,1.35-1.23,2.51-2,4.35s-1.86,4.51-1.86,4.51H73.11c-1-2.46-2.87-6.64-3.8-8.67-.25,2.64-.59,5.86-.66,8.91a14.71,14.71,0,0,0-2.1,0c.25-1.67.67-4.87.94-6.91.22-1.73.47-3.83.75-6.27h2.43c1.24,2.81,2.91,6.63,4.08,9.13.81-1.7,2.94-6.31,4.2-9.13h2.43s.17,2.47.5,6.27C82.19,80,82.31,81.28,82.55,83.29Zm16-11.48c0,3.86,0,8.44.11,11.5a27.76,27.76,0,0,0-3.29,0c.12-3.06.13-7.64.1-11.5-1.27,0-2.72.06-4.12.14,0-.54,0-1.21,0-1.84,4.41,0,7.3.07,11.33,0,0,.57,0,1.3,0,1.84C101.17,71.87,99.77,71.83,98.5,71.81Zm-9.69,4.67c0,2.5,0,5.07.08,6.82-1.23,0-2.06,0-3.3,0,0-1.75.08-4.32.08-6.82s0-3.55-.08-6.36c1.23,0,2.06,0,3.3,0C88.82,72.93,88.79,73.91,88.81,76.48Zm45.77,0c0,2.5,0,5.07.08,6.82-1.23,0-2.06,0-3.3,0,.06-1.75.09-4.32.09-6.82s0-3.55-.09-6.36c1.23,0,2.06,0,3.3,0C134.59,72.93,134.56,73.91,134.58,76.48Zm76.41,3c.07,3-2.5,4.1-5.05,4.1a9.05,9.05,0,0,1-4.62-1.26,10,10,0,0,0,.65-2.74h.46a3.55,3.55,0,0,0,3.66,2.56c1,0,1.93-.45,2-1.68s-.84-1.84-2.39-2.53c-1.25-.56-3.72-1.45-3.85-3.93-.11-2.09,1.51-4.09,4.51-4.09a8.2,8.2,0,0,1,4.52,1.38h0a9.44,9.44,0,0,0-.63,2.12l-.47-.09a3.38,3.38,0,0,0-3.49-2c-1,.09-1.88.65-1.76,1.69s1.06,1.64,2.53,2.26C209,76,210.94,77.1,211,79.43Zm-97.31,0c.07,3-2.5,4.1-5.05,4.1A9.05,9.05,0,0,1,104,82.27a10,10,0,0,0,.65-2.74h.46a3.54,3.54,0,0,0,3.66,2.56c1,0,1.93-.45,2-1.68s-.84-1.84-2.4-2.53c-1.24-.56-3.71-1.45-3.84-3.93-.11-2,1.28-4.09,4.28-4.09a7.85,7.85,0,0,1,4.29,1.38h0a10.61,10.61,0,0,0-.63,2.12l-.45-.09a3.07,3.07,0,0,0-3.27-2c-1,.09-1.65.65-1.53,1.69s1,1.64,2.53,2.26C111.67,76,113.62,77.1,113.68,79.43Zm156.82,2c-2.12.15-3.47.26-5.67.26,0-.76,0-3,0-4.58,2.27,0,3,0,5.1.14,0-.67,0-1.26,0-1.83-1.69.08-2.81.16-5.09.16,0-1.36,0-3.13,0-3.91,2.2,0,3.42.08,5.54.23a17.71,17.71,0,0,1,0-1.8l-5.86,0-2.88,0c.05,1.37.08,3.73.08,5.47v1.87c0,1.49,0,4-.08,5.84l2.21,0c.81,0,2,0,3.22,0l3.43,0C270.46,82.66,270.48,81.79,270.5,81.44Zm8.2-6.21c-1.47-.62-2.39-1.12-2.53-2.26s.54-1.59,1.53-1.68a3.07,3.07,0,0,1,3.27,2l.45.08a10.71,10.71,0,0,1,.63-2.11h0a7.85,7.85,0,0,0-4.29-1.38c-3,0-4.39,2.07-4.28,4.09.13,2.48,2.6,3.38,3.85,3.93,1.55.7,2.43,1.36,2.39,2.54s-.92,1.65-2,1.68a3.56,3.56,0,0,1-3.67-2.57h-.45a10.49,10.49,0,0,1-.66,2.75,9.05,9.05,0,0,0,4.62,1.26c2.55,0,5.12-1,5-4.11C282.6,77.12,280.64,76.05,278.7,75.23ZM348.46,60.9c-1.56.36-2.33.56-3.61,1L344,57.64a22.8,22.8,0,0,0,3.69-.59c9.93-2.19,17.63-6.67,20.09-17,.79.27,1.41.46,2.22.66C366.84,53.71,359.65,58.31,348.46,60.9Zm4-16.58,2.26-2.73c-3.29-3.2-7.8-5.51-10.7-7l-1.37,2C345.77,38.16,350.26,41.19,352.45,44.32Zm-50.18-4.27c-3.13,13-10.32,17.62-21.52,20.21-1.55.36-2.32.55-3.61,1L276.27,57a23,23,0,0,0,3.69-.6c9.93-2.19,17.63-6.66,20.1-17C300.84,39.65,301.46,39.84,302.27,40.05Zm-12.75-2a33,33,0,0,0-11.41-4.53l-1,2.21c3.39.86,8.08,2.68,10.86,5.29Zm-15.75,6a28.63,28.63,0,0,1,11.14,4.67l1.46-3a32.87,32.87,0,0,0-11.65-4Zm24.52-11.66-2,.85a26.38,26.38,0,0,1,2.27,4.64l2.51-1.06A18.84,18.84,0,0,0,298.29,32.34Zm6.5,2.86A19.15,19.15,0,0,0,302,30.76l-2,.86a26.38,26.38,0,0,1,2.27,4.64ZM270,43.92c-4.63,12.4-13,16.22-24.38,17.5V41.27c0-3.23,0-5.19-.17-7.25h4.24c-.13,2.06-.18,4-.18,7.25V56.93c8.5-1.5,15.25-5.33,18.45-14.15ZM334.67,35a26,26,0,0,0-2.27-4.64l2-.86a19.28,19.28,0,0,1,2.76,4.43Zm6.25-2.64a18.84,18.84,0,0,0-2.77-4.43l-2,.85a26.38,26.38,0,0,1,2.27,4.64ZM325.39,46.69h4.74c3.23,0,5.19.06,7.25.18V43.71c-2.06.12-4,.17-7.25.17H314.41c-3.23,0-5.19-.05-7.25-.17v3.16c2.06-.12,4-.18,7.25-.18h7.27v.72c.15,7.47-5.08,11.18-11.75,12.68l1,2.19c4.75-1.37,14.46-3.79,14.46-14.87ZM310.6,38c2.06-.12,4-.17,7.25-.17h9c3.24,0,5.2.05,7.25.17V34.81c-2.05.12-4,.18-7.25.18h-9c-3.23,0-5.19-.06-7.25-.18ZM381,60.26c-1.56.36-2.33.55-3.62,1L376.53,57a23,23,0,0,0,3.68-.6c9.93-2.19,17.64-6.66,20.1-17,.79.26,1.4.45,2.22.66C399.39,53.06,392.2,57.67,381,60.26ZM389.77,38a33,33,0,0,0-11.4-4.53l-1,2.21c3.39.86,8.08,2.68,10.87,5.29ZM374,44a28.67,28.67,0,0,1,11.15,4.67l1.45-3a32.87,32.87,0,0,0-11.65-4Zm66.2-9.34h4.24c-.12,2.05-.18,5.2-.18,8.44,0,12.79-3.41,14.58-10,18.14l-1.26-2c5.32-2.72,7.35-5.08,7.35-16.19C440.4,39.86,440.34,36.71,440.22,34.66Zm24.65,8.76A19.89,19.89,0,0,1,453.6,55.49V41.67c0-3.23,0-5.19.17-7.25h-4.23c.12,2.06.17,4,.17,7.25V60.82c8-2,13.6-6.44,17.29-16.49Zm-47.49.32,14.51-2.2c-.23,5.62-3,9.38-8.61,12.56l-1-1.7c2.36-1.33,5.44-4.67,6-7.86l-10.5,1.59L418.89,55c.43,3.2.75,5.14,1.14,7.16l-3.66.49c-.15-2-.36-4-.79-7.21l-1.18-8.82-.46.07c-3.2.49-5.13.83-7.14,1.26l-.42-2.73c2.05-.19,4-.43,7.2-.91l.49-.08c-.36-2.58-.64-4.3-1-6.08l3.66-.49C416.87,39.46,417.05,41.18,417.38,43.74Z"/><path d="M76.45,1.46a6.26,6.26,0,0,0-.1-1h2.09a5,5,0,0,0-.1,1V3.1H82A5.4,5.4,0,0,0,83,3V4.13A4.16,4.16,0,0,0,82,4H78.34V9.64c0,3.43-1.94,5.39-6.09,6.07a2.49,2.49,0,0,0-.78.24l-.34-1c2.91-.17,5-1.87,5.3-4.32a3,3,0,0,1-2.32,1,3.09,3.09,0,0,1-3.26-3.1,3.15,3.15,0,0,1,3.24-3.12,3.08,3.08,0,0,1,2.39,1V4H68.82a5.73,5.73,0,0,0-1,.11V3a5.43,5.43,0,0,0,1,.1h7.65Zm-4,7.09a2,2,0,0,0,2,2.16,2.09,2.09,0,0,0,2-2.2,2,2,0,1,0-4,0ZM95.41,1.73a5.23,5.23,0,0,0-.1-1h2.08a5.24,5.24,0,0,0-.11,1V3.07h4a4.42,4.42,0,0,0,1-.12V4.09a5.4,5.4,0,0,0-1-.1h-4V6.35h4.09a5.24,5.24,0,0,0,1-.11V7.37a5.15,5.15,0,0,0-1-.11H97.28v2.9a20.64,20.64,0,0,1,4.43,2.08,3.62,3.62,0,0,0,.88.42l-1.18,1.78a16.11,16.11,0,0,0-4.13-2.88v.65c0,2.13-1.26,3.19-3.81,3.19s-4.13-1.18-4.13-3S91,9.52,93.4,9.52a13.14,13.14,0,0,1,2,.17V7.26H90.35a5.63,5.63,0,0,0-1,.11V6.24a5.24,5.24,0,0,0,1,.11h5.06V4h-5a3.78,3.78,0,0,0-1,.12V3a4.15,4.15,0,0,0,1,.12h5Zm0,9.09a8,8,0,0,0-2.2-.35c-1.77,0-2.86.75-2.86,1.93s1.14,2,2.84,2c1.53,0,2.22-.73,2.22-2.34Zm22.2-.19a2.62,2.62,0,0,0-.41.92A7.2,7.2,0,0,1,115.86,14a2,2,0,0,1-1.61.83c-1.11,0-2-.78-2.74-2.29-.82-1.77-1.14-4-1.14-7.7V3.55a7.18,7.18,0,0,0-.09-1l2.1.07a6.47,6.47,0,0,0-.11,1.18V5c0,3.18.25,5,.85,6.49.45,1.07,1,1.61,1.54,1.61s.82-.33,1.34-1.18a4.18,4.18,0,0,0,.69-1.84Zm5,1.56a6.54,6.54,0,0,0-.09-1.09C122.28,8.3,120.46,4.72,119,4l.86-.88a4.08,4.08,0,0,0,.58.6,12.53,12.53,0,0,1,4.22,7.06,5.45,5.45,0,0,0,.21.83Zm20.47,2.89c-.68,0-1,0-1.6,0s-2.27.05-3.65.05a9.15,9.15,0,0,1-4.75-.92,3.24,3.24,0,0,1-1.69-2.93c0-1.94,1.29-3.31,4.2-4.47a32.27,32.27,0,0,1-1.68-5,2.57,2.57,0,0,0-.37-.85L135.66.4a5.45,5.45,0,0,0,.17,1,29.1,29.1,0,0,0,1.54,4.81c1.51-.52,2.69-.85,4.7-1.36a3.23,3.23,0,0,0,.9-.36l.31,1.2a5.88,5.88,0,0,0-.92.1,30.07,30.07,0,0,0-7.31,2.34c-1.51.78-2.24,1.7-2.24,2.88,0,1.66,1.53,2.41,5,2.41a29.21,29.21,0,0,0,5.34-.31Zm7.17-7.89c2.12-.62,5.88-3.38,7.94-5.79a8,8,0,0,0,.71-.95l1.53,1.66c-.24.2-.42.33-.5.42a1.78,1.78,0,0,0-.28.23l-.38.33a26.61,26.61,0,0,1-7.82,4.59,18.91,18.91,0,0,1,8.68,6.19l.68.8L158.9,16l0-.06a7.83,7.83,0,0,0-.5-.93,19.47,19.47,0,0,0-6.76-6.33,4.94,4.94,0,0,0-1.32-.48Zm17.82,3.63a58.15,58.15,0,0,0,.79-6.95c0-.13,0-.21,0-.37l2,.24a4.52,4.52,0,0,0-.21,1.15c-.07,1-.34,3.15-.54,4.16a7.69,7.69,0,0,1,5.6-2.24c3.16,0,5,1.43,5,3.8,0,3.05-2.72,4.77-7.87,4.94a4.64,4.64,0,0,0-.82.11l-.22-1a6.72,6.72,0,0,0,.78.06,9,9,0,0,0,4.42-1.15,3.27,3.27,0,0,0,1.7-2.93c0-1.75-1.34-2.83-3.5-2.83-2.33,0-4.93,1.58-5.41,3.3Zm8.1-6.61a18.15,18.15,0,0,0-6.12-2.82l.53-1.13a4,4,0,0,0,1,.38,34.47,34.47,0,0,1,4.62,1.58l.83.35Zm24.19,4.25a3.84,3.84,0,0,0-.29.57l0,.16-.26.73a10.43,10.43,0,0,1-2.16,3.6,5.83,5.83,0,0,1-4.36,1.75c-3,0-4.55-1.45-4.55-4.36,0-.52,0-1.17,0-1.91,0-1.39.1-5.74.1-6.47a5.31,5.31,0,0,0-.1-1.28h2.17a5.33,5.33,0,0,0-.13,1.47c0,1.13,0,1.49-.08,7,0,.61,0,1,0,1.09,0,2.17.94,3.21,2.86,3.21a5.12,5.12,0,0,0,4.06-2.1,8.93,8.93,0,0,0,1.52-3A6.28,6.28,0,0,0,199.3,8Zm14,5.91a4.2,4.2,0,0,0,2.17-.57,6.1,6.1,0,0,0,3-5.53,6.13,6.13,0,0,0-1.39-4.11,4.55,4.55,0,0,0-3.07-1.49,21.2,21.2,0,0,1-1.54,8.24c-.92,1.94-2.13,3-3.47,3-1.82,0-3.26-2.08-3.26-4.71a7.31,7.31,0,0,1,7.65-7.39c4.3,0,7.11,2.57,7.11,6.52,0,3.66-1.94,5.82-6,6.74a5.58,5.58,0,0,0-.9.3Zm-4.68-9.1a7.19,7.19,0,0,0-1.06,4c0,2,.71,3.77,1.53,3.77,1.5,0,3.1-5.24,3.1-10.22A5.51,5.51,0,0,0,209.75,5.27Zm28.79,2.67a13.36,13.36,0,0,0,6,4.66l.87.25-1.42,2-.63-.44A12.88,12.88,0,0,1,238.12,9v6a8,8,0,0,0,.1,1.14H236l0-.09,0-.34a4,4,0,0,0,0-.71V10A15.22,15.22,0,0,1,230,14.77l-.53.35-.52-.8.66-.26a15.55,15.55,0,0,0,5.54-6.12h-4.56a7.51,7.51,0,0,0-1.16.09V7a7.78,7.78,0,0,0,1.16.09h5.53V3.93H232a7.48,7.48,0,0,0-1.15.09V3a7.57,7.57,0,0,0,1.15.09h4.1V1.14c0-.22,0-.43,0-.64l0-.34L236,0h2.25a7.85,7.85,0,0,0-.1,1.14V3.05h4.23A7.05,7.05,0,0,0,243.5,3V4a7.3,7.3,0,0,0-1.15-.09h-4.23V7.06h5.65A7.05,7.05,0,0,0,244.92,7V8l-.19,0-.24,0c-.2,0-.42,0-.72,0Zm23.15,1.11a13.7,13.7,0,0,0,5.83,3.81l.9.23-1.39,2-.67-.47a14,14,0,0,1-5.15-4.78v5.08a6.69,6.69,0,0,0,.1,1.14h-2.15l0-.09,0-.34a3.84,3.84,0,0,0,.06-.71V10.58a15.48,15.48,0,0,1-6.07,4.35l-.56.26-.48-.8.71-.24a14.89,14.89,0,0,0,5.22-5.1h-4.37a7.54,7.54,0,0,0-1.17.09V8.08a7.9,7.9,0,0,0,1.17.09h2.48l-.09-.54a23.11,23.11,0,0,0-.87-2.55l-.31-.49.85-.46.26.43a26.27,26.27,0,0,1,1.79,2.15l.43.54-1.79.92h2.78V3.92H254.5a7.31,7.31,0,0,0-1.15.08V3A7.47,7.47,0,0,0,254.5,3h4.75V1.14c0-.22,0-.43,0-.64l0-.34,0-.16h2.19l0,.17-.05.26a4.81,4.81,0,0,0-.05.71V3h4.85A7.14,7.14,0,0,0,267.22,3V4H267l-.24,0a7.18,7.18,0,0,0-.73,0h-4.85V8.17h1.24a17.94,17.94,0,0,0,1.38-3.28l.18-.76,2.14.9-.52.66a24.44,24.44,0,0,1-2,2.48h3.23A7.33,7.33,0,0,0,268,8.08V9.14l-.19,0-.24,0c-.2,0-.44,0-.73,0Zm13.5-.66a6.28,6.28,0,0,0,1-1c.68-.73,3.9-4.12,4.25-4.45a1.2,1.2,0,0,1,.87-.44,1.3,1.3,0,0,1,.87.4A61.11,61.11,0,0,1,290,12.08a6.11,6.11,0,0,0,.7.85L289,14.55a9.24,9.24,0,0,0-.49-1,78.14,78.14,0,0,0-6.41-9.17c-.54-.63-.61-.68-.77-.68s-.24.09-.4.26c-.46.59-2.4,3.28-3.64,5a1.36,1.36,0,0,0-.12.17s-.19.28-.34.52l-.18.28Z"/></g></g></svg>